<svg width="210" height="90" viewBox="0 0 210 90" fill="none" xmlns="http://www.w3.org/2000/svg">
<g clip-path="url(#clip0_6141_310097)">
<path d="M112.144 39.1261C112.21 39.1261 112.293 39.1261 112.359 39.1093C113.452 38.992 114.43 38.0867 114.595 36.9634C114.761 35.857 114.065 34.9349 113.005 34.8175C112.939 34.8175 112.856 34.8008 112.79 34.8008C112.724 34.8008 112.641 34.8008 112.575 34.8175C111.481 34.9349 110.504 35.8402 110.338 36.9634C110.256 37.5502 110.405 38.0699 110.719 38.4723C111.051 38.8746 111.548 39.1261 112.144 39.1261Z" fill="black"/>
<path d="M162 57.1317C162 54.1811 160.576 51.482 159.317 49.1014C158.24 47.0728 157.28 45.2287 157.528 43.854C157.71 42.8648 158.406 42.2948 159.483 42.2278C159.516 42.2278 159.549 42.211 159.582 42.211C159.632 42.1943 159.681 42.1607 159.731 42.1272C159.781 42.0937 159.814 42.0434 159.83 41.9931C159.83 41.9763 159.847 41.9763 159.847 41.9595L160.377 40.5681C160.427 40.4172 160.443 40.3166 160.394 40.216C160.361 40.1489 160.311 40.0819 160.228 40.0148C160.129 39.931 159.963 39.8639 159.748 39.7969C159.45 39.6963 159.069 39.6292 158.721 39.6292C157.164 39.6292 155.259 40.1489 153.603 44.3234C153.536 44.491 150.34 52.8735 150.24 53.1417C149.843 54.1308 148.998 55.3211 147.209 55.3211C146.431 55.3211 145.801 55.0193 145.453 54.5164C145.387 54.4158 145.337 54.3152 145.288 54.2146C145.155 53.8793 145.106 53.477 145.188 53.0411C145.222 52.8902 145.255 52.7226 145.304 52.5549C145.387 52.2699 145.503 51.9514 145.636 51.6329C146.861 48.4643 151.217 37.1816 152.559 33.7112C152.725 33.2754 152.493 32.9233 152.029 32.9233H150.489C150.323 32.9233 150.141 32.9736 149.992 33.0574C149.71 33.1915 149.478 33.443 149.362 33.7112C148.766 35.2368 147.921 37.4498 147.027 39.7801C146.331 41.574 145.619 43.4348 144.957 45.1281C144.758 44.7928 144.526 44.4743 144.277 44.1725C144.012 43.8707 143.731 43.5857 143.433 43.3343C142.141 42.2613 140.501 41.6745 138.696 41.6745C136.476 41.6745 134.339 42.5798 132.666 44.0551C132.6 44.1054 132.55 44.1725 132.484 44.2228C132.435 44.2563 132.401 44.3066 132.352 44.3402C131.259 45.3796 130.397 46.6705 129.867 48.0955C129.867 48.1122 129.851 48.129 129.851 48.1625C129.784 48.3469 129.735 48.5314 129.668 48.7325C129.569 49.0846 129.486 49.4367 129.437 49.8055C129.387 50.1408 129.354 50.4761 129.337 50.8114C129.304 51.7837 129.453 52.7393 129.751 53.6111C129.602 53.8626 129.403 54.0973 129.188 54.3152C128.575 54.902 127.764 55.2876 126.919 55.3546C126.836 55.3546 126.77 55.3546 126.687 55.3546C126.356 55.3546 126.041 55.2876 125.759 55.187C125.412 55.0529 125.113 54.8349 124.915 54.5499C124.534 53.9967 124.534 53.192 124.882 52.2699C124.964 52.0352 125.494 50.6102 125.975 49.3361C126.339 48.3469 126.67 47.4249 126.737 47.2405C126.77 47.1399 126.836 46.989 126.886 46.8046C126.969 46.4525 127.018 45.9663 126.786 45.4634C126.687 45.2622 126.571 45.0946 126.439 44.9437C126.174 44.6587 125.826 44.491 125.494 44.3569C125.362 44.3066 125.229 44.2563 125.097 44.2228C124.865 44.1557 124.617 44.0551 124.335 43.9378C124.318 43.9378 124.318 43.921 124.302 43.921C123.838 43.7199 121.602 42.6637 121.602 40.6519C121.602 40.6016 121.602 40.5513 121.602 40.5178C121.602 40.501 121.602 40.4842 121.602 40.4675C121.602 40.4507 121.602 40.4172 121.602 40.4004C121.569 40.0986 121.47 39.9142 121.337 39.8136C121.32 39.8136 121.32 39.7969 121.304 39.7969C121.304 39.7969 121.304 39.7969 121.287 39.7969C121.271 39.7801 121.254 39.7801 121.238 39.7633C121.238 39.7633 121.238 39.7633 121.221 39.7633C121.221 39.7633 121.221 39.7633 121.205 39.7633C121.188 39.7633 121.188 39.7466 121.171 39.7466C121.089 39.7131 121.006 39.6963 120.906 39.6963H119.383C119.068 39.6963 118.72 39.8639 118.488 40.1154C118.389 40.216 118.306 40.3501 118.256 40.4842C117.925 41.3392 117.527 42.3619 117.113 43.4516C115.656 47.2405 113.917 51.7837 113.42 53.0746C113.403 53.1249 113.387 53.1752 113.37 53.2255C112.972 54.2146 112.128 55.4049 110.322 55.4049C109.544 55.4049 108.898 55.1032 108.567 54.6002C108.368 54.2985 108.268 53.9129 108.285 53.4602C108.302 53.1082 108.384 52.7226 108.533 52.3202C108.848 51.482 109.527 49.7384 110.24 47.8943C110.919 46.134 111.631 44.2563 112.128 42.9822C112.293 42.5463 112.061 42.1943 111.598 42.1943H110.057H109.908C109.809 42.1943 109.693 42.211 109.577 42.2445C109.56 42.2445 109.56 42.2445 109.544 42.2445C109.179 42.3451 108.815 42.5966 108.6 42.8648C107.805 43.8372 106.778 44.6252 105.651 45.1952C104.525 45.7652 103.316 46.134 102.157 46.2681C101.991 45.8322 101.776 45.3963 101.511 44.994C101.494 44.9772 101.494 44.9604 101.477 44.9437C101.312 44.6922 101.146 44.4575 100.947 44.2228C99.5727 42.6134 97.6016 41.7248 95.3655 41.7248C94.173 41.7248 93.0135 41.9931 91.9203 42.4625C92.4669 41.0375 93.0135 39.5957 93.527 38.2377C94.1564 36.578 94.7527 35.0357 95.233 33.7615C95.3159 33.5604 95.2993 33.3927 95.233 33.2418C95.1502 33.0742 94.968 32.9736 94.7196 32.9736H94.703H93.1792H93.1626C92.9804 32.9736 92.7816 33.0407 92.5994 33.1412C92.3841 33.2586 92.2019 33.4262 92.1025 33.6274C92.086 33.6777 92.0529 33.7112 92.0363 33.7615C90.0652 38.8413 86.9182 47.0728 85.4275 51.0126C85.0134 52.0855 84.7318 52.8567 84.6159 53.1417C84.2183 54.1308 83.3736 55.3211 81.5848 55.3211C81.4191 55.3211 81.27 55.3044 81.1375 55.2876C80.5744 55.187 80.094 54.9355 79.829 54.5164C79.7793 54.4326 79.7296 54.3488 79.68 54.2482C79.5309 53.9129 79.4812 53.4937 79.564 53.0411C79.5971 52.8232 79.7131 52.4711 79.8456 52.119C80.0278 51.6161 80.21 51.1299 80.21 51.1299C80.21 51.1299 80.8725 49.4199 81.8166 46.9387C81.916 46.6705 82.032 46.3855 82.1479 46.0837C82.1645 46.0502 82.181 46.0166 82.181 45.9831C83.6386 42.1943 85.5931 37.081 87.001 33.3927C87.5642 31.9006 88.0445 30.6433 88.3758 29.805C88.5414 29.3692 88.3095 29.0171 87.8457 29.0171H86.3053C85.8416 29.0171 85.3447 29.3692 85.179 29.805C84.9968 30.2745 83.3736 34.5327 81.5516 39.2939C79.1996 45.4299 76.5329 52.404 76.2513 53.1585C76.1851 53.3093 76.1188 53.4602 76.036 53.6111C75.7875 54.0973 75.4066 54.5667 74.8766 54.902C74.4459 55.1702 73.8828 55.3379 73.2036 55.3546C72.5742 55.3546 72.0442 55.1702 71.6798 54.8182C71.597 54.7343 71.5142 54.6505 71.4314 54.5499C71.1829 54.1643 71.0835 53.6782 71.1829 53.1082V53.0914C71.2657 52.6052 71.9117 50.8952 71.9117 50.8617C72.3258 49.7887 72.8061 48.5146 73.3196 47.1566C75.0256 42.714 77.1126 37.2151 78.4543 33.7448C78.4874 33.6442 78.504 33.5436 78.504 33.443C78.4874 33.3089 78.4377 33.1748 78.3383 33.0909C78.2389 33.0071 78.1064 32.9568 77.9242 32.9568H76.3838C76.2182 32.9568 76.036 33.0071 75.8704 33.0909C75.6385 33.2083 75.4397 33.3927 75.3238 33.6107C75.3072 33.6442 75.2741 33.6945 75.2575 33.728C74.86 34.7507 74.4293 35.8907 73.9656 37.0977C73.4687 38.4054 72.9386 39.7969 72.392 41.1884C70.2719 46.7208 68.1684 52.2699 67.8205 53.1585C67.7046 53.4435 67.5555 53.7285 67.3733 54.0135C66.8764 54.7343 66.0814 55.3379 64.7729 55.3379C64.2925 55.3379 63.8619 55.2205 63.514 55.0193C63.3153 54.8852 63.1331 54.7343 63.0171 54.5332C62.9343 54.3991 62.8681 54.2649 62.8184 54.114C62.719 53.8123 62.7024 53.4602 62.7687 53.0746C62.8515 52.6052 63.3153 51.3814 63.3981 51.197C63.3981 51.1802 63.4147 51.1634 63.4147 51.1634L66.5783 42.9151C66.7439 42.4793 66.512 42.1272 66.0482 42.1272H64.5078C64.2263 42.1272 63.9281 42.2613 63.6962 42.4625C63.6797 42.4625 63.6797 42.4793 63.6797 42.4793C63.5472 42.5966 63.4478 42.7475 63.3981 42.8984L63.0834 43.7366L62.5865 45.0443C62.4871 44.8934 62.3877 44.7425 62.2883 44.5916C62.189 44.4407 62.073 44.3066 61.9571 44.1725C61.4602 43.5857 60.8639 43.0828 60.2179 42.6972C59.1082 42.0266 57.7996 41.6745 56.3918 41.6745C52.93 41.6745 49.6504 43.8875 48.0438 47.0058C47.5966 47.8775 47.2819 48.8164 47.1328 49.7887C46.785 52.0687 47.3647 54.2314 48.756 55.8576C49.1867 56.3605 49.667 56.7964 50.2136 57.1485C50.313 57.2155 50.4289 57.2826 50.5449 57.3497C51.6546 58.0035 52.9466 58.3556 54.3379 58.3556C56.574 58.3556 58.7438 57.4167 60.4332 55.9247C60.4829 56.0252 60.5492 56.1258 60.6154 56.2264C60.6486 56.2767 60.6982 56.3438 60.7314 56.3941C60.7314 56.4108 60.7479 56.4108 60.7479 56.4276C60.7811 56.4779 60.8308 56.5282 60.8639 56.5785C60.897 56.612 60.9301 56.6455 60.9467 56.6791C60.9633 56.7126 60.9964 56.7294 61.0295 56.7629C61.0792 56.8132 61.1289 56.8635 61.162 56.9138C61.1786 56.9305 61.1952 56.9473 61.2117 56.9641C61.278 57.0144 61.3277 57.0814 61.3939 57.1317C61.3939 57.1317 61.3939 57.1317 61.4105 57.1485C61.9736 57.6347 62.6859 58.0203 63.514 58.2214C63.5306 58.2214 63.5472 58.2382 63.5637 58.2382C63.6465 58.255 63.7294 58.2717 63.8122 58.2885C63.8453 58.2885 63.8784 58.3053 63.9281 58.3053C63.9944 58.322 64.0606 58.322 64.1434 58.3388C64.2097 58.3388 64.2594 58.3556 64.3256 58.3556C64.3753 58.3556 64.425 58.3723 64.4913 58.3723C64.6072 58.3723 64.7232 58.3891 64.8557 58.3891C65.717 58.3891 66.5286 58.2214 67.2739 57.9029C67.5555 57.7855 67.8205 57.6514 68.069 57.4838C68.1518 57.4335 68.2346 57.3832 68.3174 57.3161C68.6487 57.0814 68.9634 56.83 69.245 56.5282C69.3444 56.6623 69.4603 56.7797 69.5763 56.897C70.3382 57.685 71.3651 58.1711 72.5411 58.322C72.5742 58.322 72.6239 58.3388 72.6571 58.3388C72.6902 58.3388 72.7233 58.3388 72.7564 58.3388C72.8227 58.3388 72.8889 58.3556 72.9552 58.3556C72.9883 58.3556 73.0215 58.3556 73.038 58.3556C73.1043 58.3556 73.1871 58.3556 73.2533 58.3556C74.9759 58.3556 76.4998 57.7017 77.6261 56.5282C78.0567 57.0647 78.6033 57.5005 79.2327 57.8191C79.945 58.1711 80.7566 58.3556 81.6179 58.3556C82.0651 58.3556 82.4957 58.3053 82.9098 58.2214C84.7152 57.8526 86.206 56.6958 87.1169 54.9523C87.1666 55.0361 87.2163 55.1032 87.266 55.187C87.3323 55.2876 87.3985 55.3882 87.4648 55.4888C87.5642 55.6229 87.6635 55.7402 87.7629 55.8744C89.1377 57.4838 91.1087 58.3723 93.3448 58.3723C96.3925 58.3723 99.3076 56.6455 101.047 54.1308C101.842 52.974 102.388 51.6664 102.604 50.2749C102.653 49.9228 102.687 49.5708 102.703 49.2187C103.001 49.1852 103.299 49.1349 103.581 49.0678C104.856 48.8164 106.049 48.3972 107.109 47.8272C107.076 47.9111 107.043 48.0116 107.01 48.0955C106.513 49.4199 106.066 50.5599 105.834 51.1802C105.105 53.0411 105.221 54.8517 106.165 56.2599C106.513 56.7797 106.96 57.2155 107.473 57.5508C108.302 58.0873 109.295 58.3891 110.389 58.3891C113.022 58.3891 115.192 56.8635 116.219 54.2817C116.351 53.9464 116.616 53.2423 116.964 52.3202C117.693 50.4258 118.786 47.5758 119.78 44.994C119.863 44.7593 119.962 44.5246 120.045 44.3066C120.906 45.3963 122.066 46.2178 123.192 46.704C123.258 46.7375 123.308 46.7543 123.374 46.7878C123.507 46.8381 123.639 46.8884 123.755 46.9387C123.192 48.4811 122.298 50.9287 122.182 51.197C121.735 52.3537 121.602 53.477 121.801 54.4996C121.917 55.1367 122.165 55.7402 122.513 56.2767C122.745 56.612 123.01 56.9138 123.308 57.182C124.136 57.9029 125.213 58.3388 126.405 58.4058C126.521 58.4058 126.621 58.4226 126.737 58.4226C126.919 58.4226 127.101 58.4058 127.283 58.3891C127.316 58.3891 127.366 58.3891 127.399 58.3723C127.416 58.3723 127.432 58.3723 127.449 58.3723C128.211 58.2885 128.94 58.0538 129.619 57.7185C130.314 57.3664 130.944 56.897 131.474 56.3438C132.517 57.3832 133.859 58.0538 135.366 58.3053C135.78 58.3723 136.211 58.4058 136.658 58.4058C137.221 58.4058 137.785 58.3388 138.331 58.2382C139.838 57.9364 141.263 57.2155 142.455 56.2264C142.571 56.1426 142.671 56.042 142.77 55.9414C142.836 56.0588 142.903 56.1761 142.969 56.2767C143.549 57.1317 144.377 57.752 145.354 58.1041C145.404 58.1208 145.453 58.1376 145.487 58.1544C145.536 58.1711 145.602 58.1879 145.652 58.2047C145.718 58.2214 145.768 58.2382 145.834 58.255C145.884 58.2717 145.934 58.2717 145.983 58.2885C146.05 58.3053 146.099 58.322 146.166 58.322C146.215 58.3388 146.265 58.3388 146.315 58.3556C146.381 58.3723 146.431 58.3723 146.497 58.3723C146.563 58.3723 146.629 58.3891 146.696 58.3891C146.745 58.3891 146.795 58.4058 146.845 58.4058C146.961 58.4058 147.077 58.4226 147.209 58.4226C149.843 58.4226 152.013 56.897 153.039 54.3152C153.089 54.1643 154.05 51.7334 154.828 49.7217C155.06 49.1181 155.276 48.5481 155.441 48.0955C155.524 48.2799 155.623 48.4811 155.706 48.6655C156.021 49.3025 156.352 49.9564 156.7 50.627C156.982 51.1634 157.28 51.7167 157.545 52.2699C158.356 53.9129 159.035 55.5894 159.035 57.2323C159.035 62.0773 155.789 62.9324 154.795 63.0832C154.133 63.1838 153.636 63.7035 153.536 64.3406C153.52 64.4915 153.503 64.6424 153.536 64.7932C153.536 64.8435 153.553 64.8938 153.57 64.9274C153.735 65.598 154.331 66.0841 155.011 66.0841C155.044 66.0841 155.077 66.0841 155.126 66.0841C155.16 66.0841 155.193 66.0841 155.242 66.0841C156.021 65.9668 156.849 65.7153 157.628 65.3297C159.93 64.0221 162 61.4738 162 57.1317ZM142.919 49.772C142.638 51.7502 141.395 53.4937 139.772 54.4829C139.756 54.4996 139.722 54.5164 139.706 54.5164C139.706 54.5164 139.689 54.5164 139.689 54.5332C138.828 55.0361 137.867 55.3211 136.874 55.3211C136.41 55.3211 135.963 55.2541 135.548 55.1199C134.82 54.8852 134.174 54.4661 133.693 53.8793C133.213 53.2926 132.915 52.5717 132.799 51.767V51.7502C132.733 51.264 132.733 50.7611 132.815 50.2414C132.931 49.4702 133.18 48.7325 133.561 48.0619C134.058 47.1566 134.753 46.3855 135.565 45.7987C136.542 45.1113 137.685 44.6922 138.861 44.6922C139.656 44.6922 140.385 44.8766 140.998 45.2455C141.395 45.4802 141.743 45.7819 142.041 46.134C142.19 46.3184 142.323 46.5028 142.422 46.704C142.803 47.3746 142.985 48.1625 142.985 49.0008C142.985 49.2522 142.969 49.5037 142.919 49.772ZM91.9866 55.1702C91.175 54.9523 90.4793 54.5164 89.9659 53.8626C89.1874 52.907 88.8727 51.6161 89.0714 50.2246V50.2078C89.1211 49.8558 89.2039 49.554 89.2868 49.3025C89.4027 49.0008 89.5186 48.6822 89.6512 48.3637C89.6677 48.3134 89.7008 48.2799 89.7174 48.2296C89.7671 48.1458 89.8002 48.0619 89.8499 47.9781C89.8665 47.9446 89.883 47.9278 89.8996 47.8943C90.264 47.274 90.7112 46.7208 91.2247 46.2513C92.3179 45.279 93.6926 44.6754 95.1171 44.6754C95.7631 44.6754 96.3759 44.8096 96.9059 45.0443C97.4525 45.2957 97.9163 45.6478 98.2973 46.1172C99.0758 47.0728 99.3905 48.3637 99.1917 49.772C98.7445 52.8232 96.0281 55.3211 93.1295 55.3211C92.732 55.3211 92.351 55.2708 91.9866 55.1702ZM54.5035 55.3211C53.195 55.3211 52.0687 54.8014 51.3068 53.8793C51.224 53.7788 51.1577 53.6782 51.0914 53.5776C50.462 52.6555 50.2302 51.482 50.4123 50.2246C50.8596 47.1734 53.5925 44.6754 56.5077 44.6754C57.8162 44.6754 58.9425 45.1952 59.7044 46.1172C60.4829 47.0728 60.8142 48.3637 60.5989 49.772C60.5657 50.0067 60.516 50.2414 60.4498 50.4761C59.721 53.192 57.1868 55.3211 54.5035 55.3211Z" fill="black"/>
</g>
<defs>
<clipPath id="clip0_6141_310097">
<rect width="115" height="37" fill="white" transform="translate(47 29)"/>
</clipPath>
</defs>
</svg>
