<svg width="142" height="80" viewBox="0 0 142 80" fill="none" xmlns="http://www.w3.org/2000/svg">
<path fill-rule="evenodd" clip-rule="evenodd" d="M84.6394 28.4445H84.7313C84.7595 35.7832 84.6839 43.1248 84.7203 50.4635C83.0124 50.4691 81.3046 50.4691 79.5967 50.4635C79.6049 43.9892 79.6024 37.5144 79.5996 31.0397C81.3103 30.2387 83.0737 29.5116 84.6394 28.4445ZM63.3802 31.0947C65.1215 30.3624 66.8184 29.5253 68.4454 28.5705C68.5516 31.8382 68.4593 35.1111 68.4928 38.3812C70.5355 37.3333 73.0413 36.5023 75.2658 37.5365C76.8062 38.1757 77.1578 40.1345 76.6441 41.5501C76.192 42.7325 74.9644 43.3058 73.9345 43.9177C75.5002 46.0797 77.0321 48.2634 78.6145 50.4141C76.4905 50.527 74.3588 50.5322 72.2352 50.4334C71.0268 48.4718 69.7261 46.5651 68.5262 44.5982C68.4535 46.5322 68.5038 48.4665 68.4956 50.4033C66.7906 50.5434 65.0742 50.5378 63.3663 50.4089C63.3859 43.9727 63.3581 37.5337 63.3802 31.0947ZM68.487 39.6957C68.4956 40.9712 68.4817 42.2471 68.5013 43.5226C70.2929 43.2842 72.394 41.8464 71.7664 39.8246C71.1607 38.4884 69.4361 39.0947 68.487 39.6957ZM3.58301 29.125C5.79319 29.3526 9.04147 28.2196 10.4006 30.5157C10.8833 33.2567 10.5202 36.0932 10.6015 38.8726C12.1864 37.5911 14.3353 36.8287 16.3724 37.3747C18.3984 37.7722 19.6766 39.7423 19.8967 41.6597C20.1368 43.9177 19.9947 46.4471 18.4376 48.2606C17.2737 49.6874 15.4319 50.2909 13.6795 50.6667H9.87294C7.75751 50.321 5.75112 48.8532 5.48894 46.6474C4.98091 41.2125 5.85444 35.6873 5.11772 30.2772C4.47043 30.0548 3.56913 30.0111 3.58301 29.125ZM11.7903 39.5829C11.3492 39.7804 10.5427 39.8768 10.6321 40.5075C10.646 43.3086 10.5566 46.1207 10.6766 48.919C11.4971 49.9095 13.2021 49.3771 13.8551 48.4308C15.1668 46.5707 15.1305 44.1538 14.8544 42.0002C14.6645 40.587 13.4116 38.9658 11.7903 39.5829ZM88.4876 30.4282C90.5332 29.4458 92.9472 31.5118 92.2746 33.6353C91.9172 35.7394 88.8727 36.3457 87.5193 34.8092C86.3191 33.4843 86.7826 31.1055 88.4876 30.4282ZM19.8914 38.0877C19.7546 36.9491 21.0132 37.3554 21.7193 37.284C23.4215 37.3113 25.8857 36.8532 26.5301 38.9409C27.4289 37.7119 29.1339 36.5075 30.6629 37.4735C32.0919 38.2194 31.8158 40.5239 30.239 40.8973C29.0388 41.3827 28.4111 39.6901 27.3032 39.8575C26.7033 40.5846 26.8315 41.5666 26.8094 42.4362C26.8597 45.1057 26.8482 47.7752 26.8454 50.4446C25.1293 50.5185 23.4105 50.5241 21.694 50.4362C21.6912 46.9409 21.6969 43.4431 21.6969 39.9478C21.7246 39.3472 21.4763 38.7927 21.2448 38.2552C20.7927 38.1977 20.3406 38.1427 19.8914 38.0877ZM34.0595 38.6586C36.9447 36.5239 41.3932 36.6528 43.955 39.2348C46.1092 41.1113 46.6508 44.4553 45.2328 46.9108C44.0024 49.1744 41.4545 50.5185 38.8927 50.6667H38.3263C35.4157 50.4555 32.5717 48.6255 31.6259 45.8464C30.6797 43.2593 31.7933 40.214 34.0595 38.6586ZM38.033 38.2086C37.1738 38.7546 36.9169 39.8298 36.8863 40.7765C36.8275 43.3058 36.3811 45.9151 37.1403 48.3894C37.3915 49.4156 38.7195 50.0303 39.5988 49.3113C40.6843 48.3565 40.5446 46.7598 40.5642 45.4542C40.4695 43.303 40.8431 41.037 40.0059 38.9903C39.7131 38.1921 38.8004 37.893 38.033 38.2086ZM48.096 40.642C49.779 37.8709 53.4904 36.5488 56.6157 37.4241C59.5961 38.1672 62.1387 40.9632 61.8565 44.0932C61.9378 47.5829 58.6728 50.1785 55.3881 50.6667H53.6664C51.8662 50.2744 50.0832 49.52 48.872 48.1044C46.966 46.1484 46.6785 42.9409 48.096 40.642ZM53.9367 38.1977C52.5111 39.2043 52.7565 41.1936 52.6475 42.7132C52.7536 44.7845 52.2652 47.0453 53.3201 48.9519C54.0013 50.1319 55.8957 49.6216 56.1445 48.365C56.7162 45.8874 56.4483 43.295 56.3339 40.7793C56.3005 39.5226 55.589 37.5501 53.9367 38.1977ZM87.0922 39.2071C88.794 38.5436 90.5059 37.9053 92.2272 37.2924C92.2243 41.6654 92.2186 46.0355 92.2296 50.4061C90.5189 50.5385 88.8003 50.5403 87.0893 50.4117C87.0979 46.6775 87.095 42.9409 87.0922 39.2071ZM94.7914 39.1549C96.3462 38.5157 97.9033 37.885 99.4605 37.2482C99.4629 37.8874 99.4658 38.5241 99.4715 39.1633C101.431 36.5376 106.136 36.7873 107.425 39.8984C108.084 42.9903 106.978 46.3266 108.122 49.339C108.787 49.465 109.562 49.5529 109.49 50.4169C107.801 50.4964 106.071 50.6474 104.408 50.2716C103.242 49.9725 102.792 48.7163 102.731 47.6515C102.605 45.3663 102.779 43.0702 102.656 40.7821C102.63 40.0466 102.084 39.2701 101.257 39.3472C100.284 39.4267 99.9097 40.4966 99.9403 41.3225C99.9207 44.3565 99.9403 47.391 99.9346 50.4254C98.2215 50.527 96.5022 50.5294 94.789 50.4282C94.789 46.6695 94.7861 42.9136 94.7918 39.1549H94.7914ZM109.922 46.8176C107.977 42.6639 111.485 36.8367 116.338 37.3089C119.335 37.2948 121.766 39.9835 121.458 42.9136C118.933 42.963 116.41 42.9164 113.885 42.9409C114.114 44.3047 114.468 45.7806 115.598 46.708C117.225 48.1289 119.809 48.1839 121.509 46.8477C121.495 49.1113 119.017 50.1837 117.108 50.6667H114.956C112.816 50.1865 110.793 48.8532 109.922 46.8176ZM114.895 38.5844C113.999 39.4817 114.038 40.8504 113.932 42.0191C115.169 42.0355 116.402 42.0303 117.638 42.0275C117.582 40.974 117.822 39.7944 117.183 38.867C116.703 38.1319 115.528 37.9151 114.895 38.5844ZM127.581 39.1497C129.61 36.5541 134.318 36.7765 135.587 39.9591C136.204 43.0453 135.158 46.3375 136.251 49.3554C136.679 49.4514 137.105 49.5473 137.53 49.6626V50.4635C135.573 50.2716 133.187 51.0288 131.563 49.6626C130.307 47.6844 130.994 45.188 130.824 42.9851C130.729 41.7862 131.256 39.8326 129.713 39.3665C128.43 39.1633 128.011 40.6199 128.019 41.5967C127.952 44.5516 128.011 47.509 127.997 50.4663C126.3 50.4691 124.603 50.4691 122.909 50.4635C122.909 46.7024 122.907 42.9385 122.912 39.177C124.461 38.5185 126.027 37.8958 127.587 37.2619C127.584 37.8902 127.584 38.5213 127.581 39.1497Z" fill="black"/>
</svg>
