<svg width="161" height="90" viewBox="0 0 161 90" fill="none" xmlns="http://www.w3.org/2000/svg">
<g clip-path="url(#clip0_16_23)">
<path d="M61.5487 40.8928L68.9902 33.3896C65.2876 29.7959 60.4946 28 55.7009 28C50.7917 28 45.883 29.8841 42.1457 33.652C38.5251 37.3027 36.5307 42.1567 36.5307 47.3192C36.5307 52.4825 38.5251 57.3361 42.1457 60.9868C45.7664 64.6375 50.5804 66.6484 55.7009 66.6484C60.6968 66.6484 65.4014 64.7338 68.9902 61.2492L61.5487 53.7464C59.965 55.3244 57.8974 56.1902 55.7009 56.1906C53.4319 56.1906 51.2991 55.2658 49.6959 53.5867C46.3959 50.131 46.3959 44.5078 49.6959 41.0517C51.2991 39.373 53.4319 38.4486 55.7009 38.4486C57.8974 38.4486 59.965 39.3148 61.5487 40.8928Z" fill="black"/>
<path d="M31.726 76H33.6467V68.3107H41.3303V66.3885H33.6467V59.6619H31.726V66.3885H25.0041V68.3107H31.726V76Z" fill="black"/>
<path d="M111.758 28.6047V65.6776H136.297V55.5524H122.444V28.6047H111.758Z" fill="black"/>
<path fill-rule="evenodd" clip-rule="evenodd" d="M100.994 33.6518C93.52 26.1169 81.359 26.1153 73.8842 33.6518C70.2635 37.3029 68.2699 42.1565 68.2699 47.3194C68.2699 52.4823 70.2635 57.3363 73.8842 60.9866C79.83 66.9828 88.834 68.3819 96.285 64.4712L96.527 64.3444L101.262 69.1186L108.818 61.5006L104.151 56.7942L104.283 56.5483C108.311 49.0812 106.958 39.6657 100.994 33.6518ZM87.439 56.1904C85.171 56.1904 83.038 55.266 81.435 53.5869C78.135 50.1312 78.135 44.508 81.435 41.0519C83.038 39.3732 85.17 38.4488 87.439 38.4488C89.708 38.4488 91.841 39.3732 93.444 41.0519C96.744 44.508 96.744 50.1316 93.444 53.5869C91.841 55.266 89.708 56.1904 87.439 56.1904Z" fill="black"/>
</g>
<defs>
<clipPath id="clip0_16_23">
<rect width="111.29" height="48" fill="white" transform="translate(25 28)"/>
</clipPath>
</defs>
</svg>
