<svg width="190" height="82" viewBox="0 0 190 82" fill="none" xmlns="http://www.w3.org/2000/svg">
<path d="M160.311 50.4443C160.311 48.3213 162.035 46.5989 164.156 46.5989C166.279 46.5989 168.001 48.3213 168.001 50.4443C168.001 52.5673 166.279 54.2886 164.156 54.2886C162.035 54.2886 160.311 52.5673 160.311 50.4443Z" fill="#171E16"/>
<path d="M37.6728 40.2604C37.6728 37.8247 37.2022 36.0177 36.2609 34.8405C35.3184 33.6644 33.8907 33.0769 31.9714 33.0769H29.9296V47.9713H31.4918C33.6237 47.9713 35.1859 47.3393 36.1807 46.0709C37.1743 44.8046 37.6728 42.8674 37.6728 40.2604ZM44.9542 40.0067C44.9542 44.4441 43.7614 47.8634 41.3758 50.2634C38.9902 52.6646 35.6366 53.8652 31.3138 53.8652H22.9141V27.2754H31.9001C36.0682 27.2754 39.2861 28.3669 41.5538 30.5489C43.8203 32.732 44.9542 35.8831 44.9542 40.0067Z" fill="#171E16"/>
<path d="M68.2213 53.8649H74.9052V27.1638H68.2213V53.8649Z" fill="#171E16"/>
<path d="M84.2948 43.9053C84.2948 45.6077 84.5173 46.9062 84.9613 47.7986C85.4064 48.6921 86.1518 49.1382 87.2 49.1382C88.237 49.1382 88.9702 48.6921 89.3975 47.7986C89.8248 46.9062 90.0373 45.6077 90.0373 43.9053C90.0373 42.2118 89.8214 40.9344 89.3886 40.0721C88.9547 39.2075 88.2148 38.7747 87.1656 38.7747C86.1397 38.7747 85.4064 39.2053 84.9613 40.0621C84.5173 40.92 84.2948 42.2007 84.2948 43.9053ZM96.8403 43.9053C96.8403 47.1488 95.9901 49.679 94.2855 51.4927C92.582 53.3075 90.1976 54.2154 87.1321 54.2154C84.1924 54.2154 81.8523 53.2874 80.1155 51.4315C78.3764 49.5755 77.5074 47.0676 77.5074 43.9053C77.5074 40.6718 78.3587 38.1594 80.0633 36.3679C81.7679 34.5765 84.1579 33.6808 87.2356 33.6808C89.1372 33.6808 90.8196 34.0959 92.2772 34.9248C93.7359 35.7538 94.862 36.941 95.6531 38.4876C96.4454 40.032 96.8403 41.839 96.8403 43.9053Z" fill="#171E16"/>
<path d="M99.4947 53.865H106.18V34.0313H99.4947V53.865Z" fill="#171E16"/>
<path d="M99.4945 31.6323H106.18V27.1626H99.4945V31.6323Z" fill="#171E16"/>
<path d="M119.723 48.8062C120.626 48.8062 121.7 48.577 122.954 48.1219V53.1123C122.053 53.5084 121.196 53.7921 120.382 53.9601C119.567 54.1304 118.611 54.2149 117.518 54.2149C115.273 54.2149 113.656 53.6508 112.662 52.5248C111.673 51.3987 111.176 49.6696 111.176 47.3363V39.1603H108.835V34.033H111.176V28.9681L117.913 27.7964V34.033H122.178V39.1603H117.913V46.8801C117.913 48.1642 118.517 48.8062 119.723 48.8062Z" fill="#171E16"/>
<path d="M135.195 48.8062C136.097 48.8062 137.172 48.577 138.426 48.1219V53.1123C137.526 53.5084 136.668 53.7921 135.854 53.9601C135.038 54.1304 134.085 54.2149 132.989 54.2149C130.745 54.2149 129.127 53.6508 128.136 52.5248C127.145 51.3987 126.648 49.6696 126.648 47.3363V39.1603H124.306V34.033H126.648V28.8913L133.383 27.7964V34.033H137.651V39.1603H133.383V46.8801C133.383 48.1642 133.988 48.8062 135.195 48.8062Z" fill="#171E16"/>
<path d="M146.861 41.489C146.952 40.403 147.263 39.6075 147.792 39.099C148.324 38.5916 148.981 38.3379 149.766 38.3379C150.623 38.3379 151.304 38.6227 151.809 39.1969C152.318 39.7677 152.582 40.5321 152.604 41.489H146.861ZM156.288 36.0191C154.699 34.4613 152.444 33.6813 149.528 33.6813C146.463 33.6813 144.104 34.577 142.45 36.3684C140.798 38.1598 139.971 40.7302 139.971 44.0794C139.971 47.3229 140.865 49.8241 142.647 51.58C144.431 53.3358 146.935 54.2148 150.161 54.2148C151.71 54.2148 153.043 54.1091 154.16 53.8988C155.271 53.6908 156.346 53.3146 157.388 52.7716L156.361 48.302C155.603 48.6113 154.882 48.8494 154.201 49.0063C153.218 49.2344 152.139 49.349 150.964 49.349C149.675 49.349 148.658 49.0341 147.913 48.4043C147.167 47.7734 146.77 46.9034 146.724 45.7951H158.672V42.7497C158.672 39.82 157.878 37.5757 156.288 36.0191Z" fill="#171E16"/>
<path d="M53.8253 41.489C53.9165 40.403 54.227 39.6075 54.7565 39.099C55.2873 38.5916 55.9451 38.3379 56.7318 38.3379C57.5863 38.3379 58.2672 38.6227 58.7735 39.1969C59.282 39.7677 59.5457 40.5321 59.5691 41.489H53.8253ZM63.2532 36.0191C61.6632 34.4613 59.4099 33.6813 56.4925 33.6813C53.4258 33.6813 51.068 34.577 49.4156 36.3684C47.7633 38.1598 46.9356 40.7302 46.9356 44.0794C46.9356 47.3229 47.828 49.8241 49.6127 51.58C51.3953 53.3358 53.8998 54.2148 57.1255 54.2148C58.6744 54.2148 60.0074 54.1091 61.1245 53.8988C62.235 53.6908 63.31 53.3146 64.3537 52.7716L63.3255 48.302C62.5677 48.6113 61.8467 48.8494 61.1669 49.0063C60.181 49.2344 59.1028 49.349 57.9277 49.349C56.6404 49.349 55.6224 49.0341 54.8769 48.4043C54.1303 47.7734 53.7342 46.9034 53.6886 45.7951H65.6365V42.7497C65.6365 39.82 64.8421 37.5757 63.2532 36.0191Z" fill="#171E16"/>
</svg>
