<svg width="190" height="82" viewBox="0 0 190 82" fill="none" xmlns="http://www.w3.org/2000/svg">
<path d="M89.1312 10.3213L33 30.8249L89.1312 20.9114V10.3213Z" fill="#171E16"/>
<path d="M87.8117 55.6593C87.8117 54.6107 87.1009 54.1368 86.6949 53.9678C87.2024 53.697 87.5408 53.0879 87.5408 52.4791C87.5408 51.2273 86.6949 50.5168 85.2062 50.5168H82.026V58.0618H85.2064C86.8305 58.0956 87.8117 57.1821 87.8117 55.6593ZM85.2064 56.8097H83.4132V54.6782H85.2064C85.9508 54.6782 86.3568 55.0503 86.3568 55.7609C86.3568 56.4037 85.917 56.8097 85.2064 56.8097ZM85.1726 53.4263H83.4132V51.8022H85.1049C85.7816 51.8022 86.0861 52.0729 86.0861 52.6143C86.12 52.9864 85.9508 53.4263 85.1726 53.4263ZM88.7929 55.6932V52.5804H90.1462V55.6257C90.1462 56.5393 90.4846 56.9791 91.1613 56.9791C91.8382 56.9791 92.1763 56.5393 92.1763 55.6257V52.5804H93.5297V58.0954H92.1763V57.6556C91.8382 58.0278 91.3981 58.2308 90.8568 58.2308C89.0635 58.1971 88.7929 56.6405 88.7929 55.6932ZM108.214 58.0956V52.5806H109.567V53.0545C109.905 52.6821 110.379 52.4791 110.954 52.4791C112.274 52.4791 112.984 53.3591 112.984 54.9829V58.0956H111.631V55.0503C111.631 54.1368 111.326 53.697 110.65 53.697C109.973 53.697 109.601 54.1709 109.601 55.0503V58.0956H108.214ZM96.1349 58.0954H94.7816V52.5804H96.1349V58.0954ZM97.353 50.9564L98.7064 50.2797V58.0954H97.353V50.9564ZM103.037 52.9528C102.699 52.6145 102.293 52.4451 101.819 52.4451C100.499 52.4451 99.6537 53.5278 99.6537 55.2533C99.6537 57.0806 100.466 58.1971 101.785 58.1971C102.259 58.1971 102.665 58.0278 103.037 57.6558V58.0618H104.391V50.2461L103.037 50.9228V52.9528ZM102.09 56.9451C101.616 56.9451 101.041 56.6405 101.041 55.2533C101.041 53.9678 101.582 53.7308 102.056 53.7308C102.563 53.7308 102.868 54.0353 103.037 54.2721V56.4375C102.834 56.6744 102.597 56.9451 102.09 56.9451ZM132.71 52.4451C132.27 52.4451 131.83 52.6483 131.492 52.9528V50.415L130.138 51.0919V58.0618H131.492V57.6558C131.83 57.9941 132.27 58.1971 132.744 58.1971C134.097 58.1971 134.875 57.1144 134.875 55.2533C134.875 53.5278 134.063 52.4451 132.71 52.4451ZM132.473 53.697C132.98 53.697 133.488 54.103 133.488 55.2197C133.488 56.3699 133.15 56.9112 132.473 56.9112C131.965 56.9112 131.627 56.5729 131.492 56.4037V54.2383C131.729 53.9 132.067 53.697 132.473 53.697ZM117.248 52.9528C116.909 52.6145 116.503 52.4451 116.03 52.4451C114.71 52.4451 113.864 53.5278 113.864 55.2533C113.864 57.0806 114.676 58.1971 115.996 58.1971C116.47 58.1971 116.909 58.0278 117.248 57.6558V57.7911C117.248 58.4002 117.248 59.2122 115.488 59.246H115.421L115.894 60.3287H115.928C117.721 60.2949 118.601 59.4152 118.601 57.5881V52.5804H117.248V52.9528ZM117.248 54.2383V56.4037C117.045 56.6744 116.774 56.9451 116.266 56.9451C115.792 56.9451 115.251 56.6405 115.251 55.2533C115.251 53.9678 115.792 53.7308 116.266 53.7308C116.774 53.697 117.078 54.0015 117.248 54.2383ZM122.83 53.9338C123.27 53.697 123.676 53.5616 124.251 53.5616C124.894 53.5616 125.233 53.8323 125.233 54.3398V54.7122C124.928 54.5428 124.454 54.4413 124.049 54.4413C123.033 54.4413 121.849 54.9152 121.849 56.2345C121.849 57.6556 122.966 58.1969 123.88 58.1969C124.252 58.1969 124.827 58.0616 125.199 57.6215V58.0614H126.552V54.3396C126.552 53.1556 125.707 52.411 124.319 52.411C123.575 52.411 122.898 52.5802 122.255 52.9524L122.83 53.9338ZM123.236 56.2684C123.236 55.7947 123.575 55.4902 124.184 55.4902C124.59 55.4902 124.928 55.5578 125.266 55.7609V56.5052C125.097 56.8097 124.691 57.0806 124.184 57.0806C123.575 57.0806 123.236 56.7759 123.236 56.2684ZM139.274 56.4714C139.037 56.7082 138.698 56.9453 138.191 56.9453C137.92 56.9453 137.04 56.8438 136.973 55.7272H140.356V55.3212C140.356 53.5618 139.443 52.4451 138.055 52.4451C136.634 52.4451 135.586 53.6633 135.586 55.3212C135.586 57.0468 136.601 58.1971 138.191 58.1971C138.901 58.1971 139.612 57.9263 140.119 57.3172L139.274 56.4714ZM136.973 54.7458C137.007 54.0691 137.413 53.5955 137.988 53.5955C138.699 53.5955 139.003 54.1709 139.037 54.7458H136.973ZM152.402 56.4714C152.165 56.7082 151.826 56.9453 151.319 56.9453C151.048 56.9453 150.168 56.8438 150.101 55.7272H153.484V55.3212C153.484 53.5618 152.57 52.4451 151.183 52.4451C149.762 52.4451 148.714 53.6633 148.714 55.3212C148.714 57.0468 149.729 58.1971 151.319 58.1971C152.029 58.1971 152.74 57.9263 153.281 57.3172L152.402 56.4714ZM150.101 54.7458C150.134 54.0691 150.54 53.5955 151.116 53.5955C151.826 53.5955 152.131 54.1709 152.164 54.7458H150.101ZM146.819 56.1669C146.819 56.6408 146.988 56.9112 147.394 56.9112C147.665 56.9112 147.969 56.8097 148.206 56.6744L148.037 57.9601C147.732 58.1293 147.326 58.2308 146.886 58.2308C145.804 58.2308 145.432 57.3172 145.432 56.5393V53.8663H144.62V52.5806H145.465V51.1596L146.819 50.4829V52.5804H148.07V53.8661H146.819V56.1669ZM144.18 57.9601C143.875 58.1293 143.469 58.2308 143.029 58.2308C141.947 58.2308 141.574 57.3172 141.574 56.5393V53.8663H140.729V52.5806H141.574V51.1596L142.928 50.4829V52.5804H144.078V53.8661H142.928V56.2007C142.928 56.6744 143.097 56.9451 143.503 56.9451C143.774 56.9451 144.078 56.8436 144.315 56.7082L144.18 57.9601ZM157.612 54.103C157.35 53.9028 157.028 53.7957 156.698 53.7985C156.022 53.7985 155.717 54.2045 155.717 55.0842V58.0616H154.364V52.5468H155.717V53.0205C156.055 52.6145 156.461 52.4115 156.935 52.4115C157.307 52.4115 157.713 52.5466 157.95 52.7498L157.612 54.103ZM96.1349 51.7686H94.7816V50.4152H96.1349V51.7686ZM105.609 52.5804H106.962V58.0954H105.609V52.5804ZM106.962 51.7686H105.609V50.4152H106.962V51.7686ZM144.349 62.5954C144.011 62.2571 143.605 62.0879 143.131 62.0879C141.811 62.0879 140.965 63.1706 140.965 64.8961C140.965 66.7232 141.777 67.8397 143.097 67.8397C143.571 67.8397 143.977 67.6705 144.349 67.2986V67.7046H145.702V59.8886L144.349 60.5656V62.5954ZM143.401 66.5878C142.928 66.5878 142.353 66.2833 142.353 64.8964C142.353 63.6106 142.894 63.3738 143.368 63.3738C143.875 63.3738 144.18 63.6783 144.349 63.9149V66.0803C144.146 66.2833 143.909 66.5878 143.401 66.5878ZM98.1309 63.7458C97.8687 63.5456 97.5473 63.4384 97.2174 63.4413C96.5407 63.4413 96.2362 63.8473 96.2362 64.7267V67.7044H94.8828V62.1894H96.2362V62.6631C96.5743 62.2571 96.9803 62.054 97.4542 62.054C97.8264 62.054 98.2325 62.1894 98.4693 62.3924L98.1309 63.7458ZM87.4054 62.1894H88.7588L87.2024 67.7044H86.0185L85.4094 65.4037C85.3079 64.9976 85.1726 64.5237 85.1049 64.2194C85.037 64.4563 84.9019 65.133 84.8004 65.4713L84.1914 67.7046H83.041L81.4847 62.1896H82.8716L83.3794 64.2535C83.447 64.5918 83.5824 65.2009 83.6501 65.6069C83.7177 65.2009 83.8869 64.5918 83.9884 64.2197L84.5636 62.1896H85.714L86.2891 64.2197C86.3906 64.5921 86.526 65.167 86.6275 65.6069C86.6951 65.2685 86.7967 64.727 86.932 64.2197L87.4054 62.1894ZM91.5335 62.0879C90.0788 62.0879 89.0299 63.3059 89.0299 64.9638C89.0299 66.6217 90.0788 67.8397 91.5335 67.8397C92.9883 67.8397 94.0372 66.6217 94.0372 64.9638C94.0372 63.2723 92.9883 62.0879 91.5335 62.0879ZM91.5335 66.5542C90.8568 66.5542 90.4169 65.9114 90.4169 64.964C90.4169 63.9828 90.8568 63.374 91.5335 63.374C92.2104 63.374 92.6502 64.0167 92.6502 64.964C92.6502 65.9114 92.2101 66.5542 91.5335 66.5542ZM137.65 63.7458C137.387 63.5456 137.066 63.4384 136.736 63.4413C136.059 63.4413 135.755 63.8473 135.755 64.7267V67.7044H134.402V62.1894H135.755V62.6631C136.093 62.2571 136.499 62.054 136.973 62.054C137.345 62.054 137.751 62.1894 137.988 62.3924L137.65 63.7458ZM126.958 62.1894H128.311L126.755 67.7044H125.571L124.962 65.4037C124.86 64.9976 124.725 64.5237 124.657 64.2194C124.59 64.4563 124.454 65.133 124.353 65.4713L123.744 67.7046H122.56V67.6708L121.003 62.1896H122.39L122.898 64.2535C122.966 64.5918 123.101 65.2009 123.169 65.6069C123.236 65.2009 123.405 64.5918 123.507 64.2197L124.082 62.1896H125.233L125.808 64.2197C125.909 64.5921 126.045 65.167 126.146 65.6069C126.214 65.2685 126.315 64.727 126.451 64.2197L126.958 62.1894ZM131.052 62.0879C129.597 62.0879 128.548 63.3059 128.548 64.9638C128.548 66.6217 129.597 67.8397 131.052 67.8397C132.507 67.8397 133.556 66.6217 133.556 64.9638C133.556 63.3059 132.507 62.0879 131.052 62.0879ZM131.052 66.5542C130.375 66.5542 129.935 65.9452 129.935 64.964C129.935 63.9828 130.375 63.374 131.052 63.374C131.729 63.374 132.169 64.0167 132.169 64.964C132.169 65.9114 131.729 66.5542 131.052 66.5542ZM102.191 64.0164L103.883 67.7046H102.394L101.244 65.133L100.533 66.0467V67.7046H99.18V60.5992L100.533 59.9225V64.3209C100.697 64.0914 100.866 63.8657 101.041 63.6443L102.124 62.2232H103.68L102.191 64.0164ZM108.653 67.7046H107.3V62.1894H108.653V62.6631C108.992 62.2909 109.465 62.0879 110.041 62.0879C111.36 62.0879 112.071 62.9678 112.071 64.5916V67.7044H110.717V64.6591C110.717 63.7455 110.413 63.3057 109.736 63.3057C109.059 63.3057 108.687 63.7796 108.687 64.6591V67.7044L108.653 67.7046ZM116.334 62.5954C115.996 62.2571 115.59 62.0879 115.116 62.0879C113.796 62.0879 112.951 63.1706 112.951 64.8961C112.951 66.7232 113.763 67.8397 115.082 67.8397C115.556 67.8397 115.996 67.6705 116.334 67.2986V67.4337C116.334 68.0427 116.334 68.8548 114.575 68.8886H114.507L114.981 69.9713H115.015C116.808 69.9375 117.687 69.0575 117.687 67.2305V62.223H116.334V62.5954ZM116.334 63.8813V66.0467C116.131 66.3174 115.86 66.5878 115.353 66.5878C114.879 66.5878 114.338 66.2833 114.338 64.8964C114.338 63.6106 114.879 63.3738 115.353 63.3738C115.86 63.3397 116.165 63.6443 116.334 63.8813ZM104.695 62.1894H106.048V67.7046H104.695V62.1894ZM106.048 61.4114H104.695V60.058H106.048V61.4114ZM138.665 60.5992L140.018 59.9225V67.7046H138.665V60.5992ZM41.9999 56.5052H52.2515V50.5504H41.9999V45.8812H53.3681L49.6127 39.3173H33.5075V67.7046H56.2104V61.1744H41.9999V56.5052ZM71.3343 39.3173L66.5299 48.588L61.7252 39.3173H52.2854L62.1988 56.5052V67.7046H70.6913V56.5052L80.6045 39.3173H71.3343Z" fill="#171E16"/>
</svg>
