<svg width="190" height="82" viewBox="0 0 190 82" fill="none" xmlns="http://www.w3.org/2000/svg">
<path d="M116.263 33.6767H118.46V46.8037H116.263V33.6767ZM108.244 33.3797C106.818 33.3797 105.512 33.8549 104.442 34.7459V33.6767H102.245V46.8037H104.442V39.3789C104.442 37.2406 106.165 35.5774 108.244 35.5774C110.323 35.5774 112.045 37.3 112.045 39.3789V46.8037H114.243V39.3789C114.243 36.0526 111.57 33.3797 108.244 33.3797ZM97.8493 33.6173H100.047V46.2691C99.9876 50.0111 96.9583 53.0404 93.2162 53.0998C90.2464 53.1592 87.5141 51.1991 86.6825 48.348H89.0584C89.8306 49.9517 91.4343 50.9615 93.2162 50.9021C95.7704 50.8427 97.7899 48.7638 97.9087 46.2097V45.1405C95.117 47.6946 90.7809 47.5758 88.2268 44.7841C85.6727 41.9924 85.7915 37.6564 88.5832 35.1023C91.1967 32.667 95.2952 32.667 97.9087 35.1023L97.8493 33.6173ZM97.8493 40.2105C97.8493 37.6564 95.7704 35.5181 93.2162 35.5181C90.6621 35.5181 88.5238 37.597 88.5238 40.1511C88.5238 42.7052 90.6027 44.8435 93.2162 44.8435C95.7704 44.8435 97.8493 42.7646 97.8493 40.2105ZM63.9925 35.5181C65.7744 35.5181 67.4376 36.5872 68.2097 38.191H70.5262C69.4571 34.5677 65.5962 32.4888 61.973 33.6173C58.3497 34.6865 56.2708 38.5473 57.3993 42.1706C58.5279 45.7939 62.3293 47.8728 65.9526 46.7443C68.1503 46.0909 69.8729 44.3683 70.5262 42.1706H68.2097C67.1406 44.4871 64.3489 45.4969 62.0323 44.4277C59.7158 43.3586 58.7061 40.5669 59.7752 38.2504C60.5474 36.5872 62.1511 35.5181 63.9925 35.5181ZM85.3163 40.2105C85.3163 44.012 82.2276 47.0412 78.4856 47.0412C74.6841 47.0412 71.6548 43.9526 71.6548 40.2105C71.6548 36.4684 74.6247 33.3797 78.4262 33.3797C82.2276 33.3797 85.3163 36.409 85.3163 40.2105ZM83.1186 40.2105C83.1186 37.6564 81.0397 35.5181 78.4856 35.5181C75.9315 35.5181 73.7931 37.597 73.7931 40.1511C73.7931 42.7052 75.8721 44.8435 78.4262 44.8435C81.0397 44.8435 83.1186 42.7646 83.1186 40.2105ZM154.693 33.3797C153.268 33.3797 151.961 33.8549 150.892 34.7459V33.6767H148.694V46.8037H150.892V39.3789C150.892 37.2406 152.614 35.5181 154.693 35.5181C156.831 35.5181 158.554 37.2406 158.554 39.3195V46.7443H160.752V39.3789C160.692 36.0526 158.019 33.3797 154.693 33.3797ZM144.298 33.6767H146.496V46.8037H144.298V45.2593C141.507 47.8134 137.171 47.6946 134.617 44.9029C132.062 42.1112 132.181 37.7752 134.973 35.2211C136.22 34.0331 137.883 33.3797 139.606 33.3797C141.329 33.3797 142.992 34.0331 144.298 35.2211V33.6767ZM144.298 40.2105C144.298 37.6564 142.22 35.5774 139.606 35.5774C137.052 35.5774 134.973 37.6564 134.973 40.2699C134.973 42.824 137.052 44.9029 139.606 44.9029C142.22 44.8435 144.298 42.7646 144.298 40.2105ZM167.998 35.815V33.6173H164.731V30.0534H162.534V42.4082C162.534 44.8435 164.494 46.8037 166.929 46.8037H167.998V44.6059H166.929C165.741 44.6059 164.731 43.5962 164.731 42.4082V35.815H167.998ZM117.332 28.9249C116.5 28.9249 115.906 29.5783 115.906 30.3504C115.906 31.182 116.56 31.776 117.332 31.776C118.163 31.776 118.757 31.1226 118.757 30.3504C118.817 29.5783 118.163 28.9249 117.332 28.9249C117.391 28.9249 117.391 28.9249 117.332 28.9249ZM131.587 33.6767H120.658V35.8744H128.736L120.658 44.6059V46.8037H131.587V44.6059H123.45L131.528 35.8744L131.587 33.6767Z" fill="#171E16"/>
<path d="M40.3415 33.1457L30.9578 27.5358L31.0861 27.3211L22.1719 40.1387H35.3623L40.3415 33.1457Z" fill="#171E16"/>
<path d="M40.3417 47.6317L35.3627 40.6387H22.1722L31.0851 53.4546L30.9578 53.2416L40.3417 47.6317Z" fill="#171E16"/>
<path d="M31.5736 53.456H44.0348L52.609 40.8805L31.5736 53.456Z" fill="#171E16"/>
<path d="M52.6097 39.8974L44.0348 27.321H31.5729L52.6097 39.8974Z" fill="#171E16"/>
</svg>
