<svg width="190" height="82" viewBox="0 0 190 82" fill="none" xmlns="http://www.w3.org/2000/svg">
<path fill-rule="evenodd" clip-rule="evenodd" d="M48.4531 52.8705V20.6582H71.2106V52.8705H48.4531ZM70.3928 52.0507V21.4768H49.2709V52.0507H70.3928ZM73.6534 52.8705V20.6582H96.4108V52.8705H73.6534ZM97.0724 52.0507L96.6166 44.7343L95.5918 39.7531V21.4768H74.4712V44.491L72.5189 48.0824L74.4712 49.2802V52.0501L97.0724 52.0507ZM98.853 52.8705V20.6582H121.61V52.8705H98.853ZM120.793 52.0507V21.4768H99.6708V52.0507H120.793ZM124.053 52.8705V20.6582H146.81V52.8705H124.053ZM145.992 52.0507V21.4768H124.871V52.0507H145.992Z" fill="#171E16"/>
<path fill-rule="evenodd" clip-rule="evenodd" d="M128.025 52.0936L129.05 48.798H138.267L135.185 59.7986C133.954 60.287 129.865 60.7702 126.959 60.7702C122.583 60.7702 116.229 57.8508 118.84 49.2474C121.964 38.9532 127.387 37.9792 131.763 37.9792C138.158 37.9792 140.436 42.1111 139.289 45.4481L134.82 45.4422C134.892 45.2921 134.917 45.0754 134.968 44.9023C135.741 42.306 134.147 41.2571 131.339 41.1236C127.192 40.9281 124.949 44.2119 123.538 49.1187C122.017 54.4105 123.296 57.6423 127.905 57.6258C131.568 57.6134 131.372 56.858 131.372 56.858L132.881 52.0936H128.025ZM48.063 60.2268H43.1875L49.7169 38.4417H54.5931C54.5925 38.4417 48.158 59.7797 48.063 60.2268ZM51.8702 48.0644H51.8667L61.3943 38.4417H67.3842L56.6131 48.5198L62.0883 60.2268H56.7782L51.8673 48.0432L51.8702 48.0644ZM65.85 60.2262L72.4101 38.4393H77.9519C82.9666 38.3785 88.3687 38.3023 87.1305 45.0157C86.4819 48.5298 83.4159 51.6264 76.4708 51.6193L72.8918 51.6217L70.3234 60.2262H65.85ZM73.7373 48.4218C75.3541 48.4218 76.5345 48.4472 77.6217 48.4271C80.89 48.3674 81.8917 47.2352 82.6288 45.0163C83.9082 41.1644 80.6353 41.5695 75.7308 41.5749L73.7373 48.4218ZM110.457 38.4381H117.602L112.185 60.2144H107.142L112.678 41.5636L100.646 60.2144H96.4128L95.2878 41.5613L89.7737 60.2144H85.6877L92.3474 38.4381H99.4181C99.4181 38.4381 100.497 49.6154 99.6693 57.2767C99.6699 57.2773 101.772 50.5101 110.457 38.4381Z" fill="#171E16"/>
</svg>
