<?xml version="1.0" encoding="UTF-8" standalone="no"?>
<svg
   id="LOGO"
   viewBox="0 0 210 89.999999"
   version="1.1"
   width="210"
   height="90"
   xmlns="http://www.w3.org/2000/svg"
   xmlns:svg="http://www.w3.org/2000/svg">
  <defs
     id="defs1">
    <style
       id="style1">
      .cls-1 {
        stroke-width: 0px;
      }
    </style>
  </defs>
  <g
     id="g6"
     transform="matrix(0.22335673,0,0,0.22335673,2.454e-6,30.924059)">
    <polygon
       class="cls-1"
       points="125.85,84.02 125.85,42.01 84.02,42.01 84.02,0 0,0 0,42.01 83.84,42.01 83.84,84.02 0,84.02 0,126.04 84.02,126.04 84.02,84.02 "
       id="polygon1" />
    <rect
       class="cls-1"
       x="189.06"
       y="42.009998"
       width="42.009998"
       height="42.009998"
       id="rect1" />
    <rect
       class="cls-1"
       x="126.04"
       width="63.02"
       height="42.009998"
       id="rect2"
       y="0" />
    <rect
       class="cls-1"
       x="126.04"
       y="84.019997"
       width="63.02"
       height="42.009998"
       id="rect3" />
    <rect
       class="cls-1"
       x="273.07999"
       y="42.009998"
       width="42.009998"
       height="42.009998"
       id="rect4" />
    <rect
       class="cls-1"
       x="231.07001"
       width="42.009998"
       height="42.009998"
       id="rect5"
       y="0" />
    <rect
       class="cls-1"
       x="231.07001"
       y="84.019997"
       width="42.009998"
       height="42.009998"
       id="rect6" />
  </g>
  <g
     id="g12"
     transform="matrix(0.22335673,0,0,0.22335673,2.454e-6,30.924059)">
    <path
       class="cls-1"
       d="m 378.13,27.96 h 35.86 c 36.52,0 44.9,18.36 44.9,32.57 v 2.82 c 0,14.68 -6.4,34.64 -44.81,34.64 H 378.12 V 27.96 Z m 19.39,54.41 h 15.63 c 23.53,0 25.6,-11.48 25.6,-19.39 v -0.56 c 0,-7.81 -2.26,-18.92 -25.6,-18.92 h -15.63 v 38.88 z"
       id="path6" />
    <path
       class="cls-1"
       d="m 512.74,26.83 c 32.76,0 42.08,19.3 42.08,34.55 v 2.82 c 0,15.06 -9.32,34.92 -42.08,34.92 h -4.14 c -32.76,0 -42.08,-19.86 -42.08,-34.92 v -2.82 c 0,-15.25 9.32,-34.55 42.08,-34.55 z m -2.07,16.01 c -19.58,0 -24,10.64 -24,19.3 v 1.32 c 0,8.47 4.71,19.58 24,19.58 19.29,0 24,-11.11 24,-19.58 v -1.32 c 0,-8.66 -4.24,-19.3 -24,-19.3 z"
       id="path7" />
    <path
       class="cls-1"
       d="m 562.91,27.96 h 25.79 l 22.31,47.44 22.97,-47.44 h 24.19 V 97.99 H 639.25 V 52.15 L 617.98,97.99 H 602.82 L 581.55,52.15 v 45.84 h -18.64 z"
       id="path8" />
    <path
       class="cls-1"
       d="M 726.42,85.01 H 688.58 L 682.93,98 h -19.48 l 31.06,-70.03 h 25.98 L 752.97,98 h -20.8 L 726.43,85.01 Z M 707.22,42.08 694.89,70.6 h 25.04 z"
       id="path9" />
    <path
       class="cls-1"
       d="M 777.53,98 H 758.14 V 27.96 h 19.39 v 70.03 z"
       id="path10" />
    <path
       class="cls-1"
       d="M 805.3,52.63 V 98 H 786.38 V 27.96 h 19.96 l 40.95,45.09 V 27.96 h 18.83 V 97.99 H 847.1 L 805.31,52.62 Z"
       id="path11" />
    <path
       class="cls-1"
       d="M 939.63,27.96 V 43.21 H 894.64 V 54.6 h 43.58 V 70.41 H 894.64 V 82.55 H 940.2 V 97.99 H 875.53 V 27.96 Z"
       id="path12" />
  </g>
</svg>
