<svg width="190" height="82" viewBox="0 0 190 82" fill="none" xmlns="http://www.w3.org/2000/svg">
<g clip-path="url(#clip0_6859_83647)">
<path d="M103.664 34.5598L109.697 32.2925L103.664 29.9604V26.7861L113.997 30.9969V33.5881L103.664 37.7989V34.5598Z" fill="#171E16"/>
<path d="M46.6118 53.9295C44.4298 53.9295 42.6328 52.8282 42.6328 50.3665V50.237C42.6328 47.2571 45.1999 46.2206 48.3446 46.2206H49.8207V45.6375C49.8207 44.4067 49.3073 43.6941 48.0237 43.6941C46.8685 43.6941 46.2909 44.3419 46.2267 45.2489H43.0179C43.2746 42.5281 45.3924 41.2325 48.2162 41.2325C51.1042 41.2325 53.2221 42.4633 53.2221 45.508V53.6704H49.949V52.2452C49.3073 53.1521 48.2162 53.9295 46.6118 53.9295ZM49.8207 49.654V48.4879H48.473C46.8043 48.4879 45.97 48.9414 45.97 50.0426V50.1722C45.97 51.0144 46.4835 51.5974 47.6387 51.5974C48.7938 51.5326 49.8207 50.8848 49.8207 49.654ZM60.8592 53.9295C57.522 53.9295 55.0832 51.8565 55.0832 47.7105V47.5162C55.0832 43.3702 57.6503 41.1677 60.8592 41.1677C63.6188 41.1677 65.865 42.5928 66.1218 45.7671H62.9129C62.7203 44.6011 62.0786 43.8237 60.9234 43.8237C59.5115 43.8237 58.4846 44.9897 58.4846 47.3866V47.7753C58.4846 50.237 59.3831 51.3383 60.9234 51.3383C62.0786 51.3383 62.9129 50.4961 63.1054 49.1357H66.1859C65.9934 51.9861 64.1323 53.9295 60.8592 53.9295ZM73.438 53.9295C70.1008 53.9295 67.662 51.8565 67.662 47.7105V47.5162C67.662 43.3702 70.2291 41.1677 73.438 41.1677C76.1976 41.1677 78.4438 42.5928 78.7005 45.7671H75.4917C75.2991 44.6011 74.6574 43.8237 73.5022 43.8237C72.0903 43.8237 71.0634 44.9897 71.0634 47.3866V47.7753C71.0634 50.237 71.9619 51.3383 73.5022 51.3383C74.6574 51.3383 75.4917 50.4961 75.6842 49.1357H78.7647C78.5722 51.9861 76.711 53.9295 73.438 53.9295ZM86.0809 53.9295C82.6154 53.9295 80.2408 51.8565 80.2408 47.7753V47.5162C80.2408 43.435 82.7437 41.1677 86.0168 41.1677C89.0331 41.1677 91.536 42.852 91.536 46.9332V48.4231H83.6422C83.7705 50.6257 84.7332 51.4678 86.1451 51.4678C87.4287 51.4678 88.1346 50.7552 88.3913 49.9131H91.536C91.1509 52.1804 89.2256 53.9295 86.0809 53.9295ZM83.7064 46.1558H88.1988C88.1346 44.3419 87.3003 43.5646 85.9526 43.5646C84.9257 43.6293 83.9631 44.2124 83.7064 46.1558ZM93.5897 41.4916H96.9911V43.3054C97.5687 42.1394 98.7881 41.2325 100.649 41.2325C102.831 41.2325 104.307 42.5928 104.307 45.508V53.6704H100.906V46.0262C100.906 44.6011 100.328 43.9532 99.109 43.9532C97.9538 43.9532 96.9911 44.6658 96.9911 46.2206V53.6704H93.5897V41.4916ZM110.533 37.7991V41.4916H112.843V44.018H110.533V49.7835C110.533 50.6904 110.918 51.1439 111.752 51.1439C112.265 51.1439 112.586 51.0791 112.907 50.9496V53.6056C112.522 53.7351 111.816 53.8647 110.982 53.8647C108.351 53.8647 107.131 52.6339 107.131 50.1722V44.018H105.719V41.4916H107.131V39.2242L110.533 37.7991ZM125.55 53.6704H122.213V51.8565C121.635 53.0226 120.48 53.9295 118.683 53.9295C116.501 53.9295 114.897 52.5691 114.897 49.7187V41.4916H118.298V49.2653C118.298 50.6904 118.876 51.3383 120.031 51.3383C121.186 51.3383 122.149 50.5609 122.149 49.0709V41.4916H125.55V53.6704ZM128.053 41.4916H131.454V43.7589C132.16 42.1394 133.316 41.362 135.112 41.362V44.7306C132.802 44.7306 131.454 45.4432 131.454 47.4514V53.7351H128.053V41.4916ZM141.979 53.9295C138.514 53.9295 136.139 51.8565 136.139 47.7753V47.5162C136.139 43.435 138.642 41.1677 141.915 41.1677C144.932 41.1677 147.435 42.852 147.435 46.9332V48.4231H139.605C139.733 50.6257 140.696 51.4678 142.108 51.4678C143.391 51.4678 144.097 50.7552 144.354 49.9131H147.499C146.985 52.1804 145.124 53.9295 141.979 53.9295ZM139.541 46.1558H144.097C144.033 44.3419 143.199 43.5646 141.851 43.5646C140.824 43.6293 139.862 44.2124 139.541 46.1558Z" fill="#171E16"/>
</g>
<defs>
<clipPath id="clip0_6859_83647">
<rect x="42.6328" y="26.7864" width="104.738" height="27.8557" fill="white"/>
</clipPath>
</defs>
</svg>
