<svg width="210" height="90" viewBox="0 0 210 90" fill="none" xmlns="http://www.w3.org/2000/svg">
<g clip-path="url(#clip0_6141_310135)">
<path fill-rule="evenodd" clip-rule="evenodd" d="M66.1056 42.5035C66.0662 38.1396 66.3805 35.0118 66.3805 35.0118C66.3805 35.0118 67.1265 34.8574 68.8537 34.8574C74.7034 34.8574 76.7838 36.6336 79.0998 41.1906C79.0605 40.032 79.0214 37.831 79.0214 36.5951C79.0214 35.3597 79.0605 34.2783 79.0998 33.3129C78.0396 33.4673 75.6059 33.5059 74.664 33.5059C72.5831 33.5059 71.6408 33.5447 68.3038 33.5832C66.6549 33.6218 65.0848 33.6218 65.0061 33.6218C61.4732 33.6218 59 33.5059 59 33.5059C61.8263 35.0892 62.2976 36.8657 62.2976 47.3689C62.2976 57.4474 61.8657 58.7605 59 60.4982C59 60.4982 61.5906 60.3823 64.0251 60.3823C66.8514 60.3823 70.62 60.537 70.62 60.537C67.2049 59.0309 66.1842 57.4858 66.1448 51.0758L66.1056 47.8707C66.5371 47.8707 67.0871 47.8322 67.6758 47.8322C73.3681 47.8322 74.664 48.7204 76.038 51.8479C76.038 51.8479 75.8807 48.489 75.8807 47.3302C75.8807 46.1717 76.038 43.0438 76.038 43.0438C74.6248 45.6312 73.3681 46.558 66.812 46.558H66.1056V42.5035ZM94.669 60.8841C96.1999 60.8841 98.0451 59.996 98.7518 59.1852C95.8856 58.4515 95.1007 57.6019 95.1007 53.6633C95.1007 51.3079 95.3361 49.2611 95.3361 47.8707C95.3361 43.7391 92.9022 41.3449 88.6621 41.3449C85.9539 41.3449 83.127 42.6968 81.8711 45.9019C83.2842 44.7818 85.3645 44.1254 87.2884 44.1254C90.1933 44.1254 91.9206 45.5156 91.8035 48.3346C91.8035 48.6431 91.7248 50.2652 91.6853 51.501C91.2534 51.4238 90.5861 51.385 89.8009 51.385C86.3854 51.385 80.6144 52.3892 80.6144 56.6753C80.6144 59.1081 82.4597 60.8841 85.4039 60.8841C87.995 60.8841 90.3504 59.5332 91.6462 57.2163C91.764 58.838 92.353 60.8841 94.669 60.8841ZM91.6069 56.0186V56.8683C90.5074 57.4475 88.5443 58.0269 87.2098 58.0269C85.5218 58.0269 84.3443 57.1775 84.3443 55.6331C84.3443 53.1229 87.3277 52.1573 91.6853 51.6938C91.6462 52.312 91.6462 52.8139 91.6462 52.8912C91.6462 53.1229 91.6069 55.1692 91.6069 56.0186ZM112.782 41.3447C110.151 41.3447 108.032 42.8512 105.716 45.1293C105.755 41.9242 105.833 32.695 105.912 32L99.0024 34.3556C102.182 36.0933 102.182 36.8657 102.182 47.7934C102.182 51.9255 101.907 59.417 101.907 59.417C103.36 60.1118 105.873 61 108.895 61C114.627 61 120.319 57.7564 120.319 50.4194C120.319 44.4343 116.551 41.3447 112.782 41.3447ZM105.716 51.0373V45.2452C107.364 44.6271 108.738 44.3957 109.916 44.3957C114.156 44.3957 116.158 47.1372 116.158 51.4235C116.158 56.5982 113.292 59.5714 109.956 59.5714C108.307 59.5714 106.853 58.8378 105.833 57.9108C105.716 55.8258 105.716 53.1226 105.716 51.0373ZM122.4 34.3556C125.58 36.0933 125.58 36.8657 125.58 47.7934C125.58 57.4091 125.462 58.4513 122.675 60.4983C122.675 60.4983 124.716 60.3823 127.15 60.3823C129.977 60.3823 132.803 60.537 132.803 60.537C129.584 58.722 129.113 57.6789 129.113 51.0373C129.113 45.0907 129.153 37.947 129.309 32L122.4 34.3556ZM151.882 50.4966C151.921 50.0721 151.961 49.6087 151.961 49.1067C151.961 45.3994 149.645 41.3446 144.306 41.3446C139.006 41.3446 134.334 45.3225 134.334 51.694C134.334 58.0655 138.966 61 143.442 61C149.252 61 152 56.0572 152 56.0572C150.233 57.2161 147.76 57.8336 145.719 57.8336C141.911 57.8336 138.809 55.7098 138.456 50.7285L151.882 50.4966ZM147.643 49.2614L138.417 49.4928C138.495 44.3957 141.322 42.6194 143.599 42.6194C146.308 42.6194 147.721 45.0521 147.721 47.6781C147.721 48.0254 147.721 48.9134 147.643 49.2614Z" fill="black"/>
</g>
<defs>
<clipPath id="clip0_6141_310135">
<rect width="93" height="29" fill="white" transform="translate(59 32)"/>
</clipPath>
</defs>
</svg>
