<svg width="210" height="90" viewBox="0 0 210 90" fill="none" xmlns="http://www.w3.org/2000/svg">
<path d="M36.075 44.1194H41.475V51.8557C41.475 55.7612 39.525 58 35.725 58C31.925 58 30 55.7612 30 51.8557V39.1443C30 35.2388 31.95 33 35.725 33C39.5 33 41.475 35.2388 41.475 39.1443V41.5075H37.825V38.8955C37.825 37.1542 37.05 36.4826 35.825 36.4826C34.6 36.4826 33.825 37.1542 33.825 38.8955V52.1045C33.825 53.8458 34.6 54.4677 35.825 54.4677C37.05 54.4677 37.825 53.8458 37.825 52.1045V47.602H36.075V44.1194ZM47.025 49.6169L42.175 33.2985H46.2L49.15 44.4428L52.1 33.2985H55.775L50.875 49.6169V57.7015H47.025V49.6169ZM65.425 50.6368L68.05 33.2985H73.4V57.7264H69.775V40.2139L67.125 57.7264H63.475L60.6 40.4627V57.7264H57.25V33.2985H62.6L65.425 50.6368ZM81.375 33C85.125 33 87.05 35.2388 87.05 39.1443V39.9154H83.425V38.8955C83.425 37.1542 82.725 36.4826 81.5 36.4826C80.275 36.4826 79.575 37.1542 79.575 38.8955C79.575 43.9204 87.1 44.8657 87.1 51.8308C87.1 55.7363 85.15 57.9751 81.35 57.9751C77.55 57.9751 75.625 55.7363 75.625 51.8308V50.3383H79.275V52.1045C79.275 53.8458 80.05 54.4677 81.275 54.4677C82.5 54.4677 83.275 53.8458 83.275 52.1045C83.275 47.0796 75.75 46.1343 75.75 39.1692C75.725 35.2388 77.625 33 81.375 33ZM93.15 57.7264H89.3V33.2985H93.15V43.7711H97.525V33.2985H101.45V57.7264H97.525V47.2537H93.15V57.7264ZM116.675 57.7264H112.8L112.125 53.2736H107.4L106.725 57.7264H103.2L107.125 33.2985H112.75C112.775 33.2985 116.675 57.7264 116.675 57.7264ZM107.9 49.9652H111.625L109.775 37.602L107.9 49.9652ZM126.525 57.7264C126.325 57.1045 126.175 56.7065 126.175 54.7164V50.8856C126.175 48.6219 125.4 47.7761 123.65 47.7761H122.325V57.7264H118.475V33.2985H124.275C128.275 33.2985 129.975 35.1393 129.975 38.9204V40.8358C129.975 43.3483 129.175 44.9901 127.45 45.7861C129.375 46.5821 130 48.4478 130 50.9851V54.7662C130 55.9602 130.025 56.8308 130.425 57.7264C130.425 57.7264 126.525 57.7264 126.525 57.7264ZM122.325 36.7811V44.2687H123.825C125.25 44.2687 126.125 43.6468 126.125 41.6816V39.2935C126.125 37.5522 125.525 36.7811 124.175 36.7811H122.325ZM137.575 47.9751L136.375 50.2139V57.7264H132.525V33.2985H136.375V43.9453L141.425 33.2985H145.275L139.925 44.194L145.275 57.7264H141.325L137.575 47.9751ZM180 33.2736H147.925L171.075 37.1791L161.65 51.5821H160.875L159.55 52.8756L158.175 51.5821H157.8L156.475 52.9005L155.15 51.5821H154.7L153.375 52.9005L152 51.5821H147.925L153.3 53.6716L154.75 52.9751L155.55 54.5423L155.95 54.6915L157.6 53.8706L158.475 55.6866L158.825 55.8109L157.6 57.7015L180 33.2736Z" fill="black"/>
<path d="M152 39L161 40.6667L157.133 41L152 39Z" fill="black"/>
</svg>
