<svg width="190" height="82" viewBox="0 0 190 82" fill="none" xmlns="http://www.w3.org/2000/svg">
<path fill-rule="evenodd" clip-rule="evenodd" d="M62.9076 27.4549L59.1619 28.4288L61.5181 31.4247L57.7724 32.7856L60.7456 35.7423L57 37.338L60.3573 40.0991L57 42.2775L59.1619 43.2906L58.9677 42.4731L62.9032 41.4991L69.1949 51.1823L69.7731 39.5164L73.5187 38.5424L77.6096 53.165L74.6752 54.1738L71.935 44.0602L71.318 54.9477L68.772 55.726L62.9032 46.4298L65.6434 56.5435L64.4481 56.9304L62.9032 60.5089L66.61 60.7046L65.4536 64.4743L69.5832 64.0482L68.5778 67.8224L72.3234 67.2397L71.9394 70.9747L75.8749 69.8094V73.7357L79.3875 71.7922L79.9657 75.9141L83.323 73.5401L84.5183 77.5446L87.8367 74.9401L89.2262 78.7143L91.9664 75.5271L94.1283 78.7143L96.4844 75.3315L98.8406 78.3273L101.003 74.9445L103.548 77.549L105.132 73.7357L108.451 76.1446L109.223 72.3704L112.774 74.1575L112.969 70.1921L116.904 71.5921L116.326 67.818L120.261 68.792L119.839 64.4743L123.774 65.2527L122.618 61.2872L126.747 61.6742L124.779 57.7088L128.909 57.5131L126.941 53.5476L130.648 52.7693L128.102 49.4257L132.038 48.0256L129.103 45.0689L133 43.0862L129.293 40.7121L133 38.5338L132.033 38.1468L123.196 40.7121L119.066 25.8939L121.612 25.2721L124.969 37.3293L129.099 36.3554L132.033 33.3596L128.098 31.8029L130.838 29.0028L127.131 28.0288L129.293 24.8765L125.164 24.4504L127.131 20.7154H123.002L124.352 16.7499L120.261 17.3326L121.228 13.3671L117.293 14.3802V10.4148L113.78 11.6192L113.586 7.65376L110.034 9.63648L109.417 5.47538L106.293 7.84943L104.942 4.0753L101.779 6.64066L100.429 2.71436L97.4554 6.44935L95.4876 2.71436L93.3257 6.05802L90.7797 3.10133L88.8119 6.64066L86.266 3.68398L84.9153 7.64942L81.558 5.08405L80.9798 9.04949L77.2342 6.87111V10.9931L73.1045 9.63213L73.2987 13.7932L69.5919 12.5888L70.1701 16.5543L66.0404 16.3586L67.2357 19.8979L63.3003 20.0936L64.8839 23.4764L60.7543 24.2547L62.9162 27.4462L62.9076 27.4549ZM117.293 26.2896L118.104 28.8158L109.611 30.9942L110.807 34.5727L118.099 32.5899L118.678 34.7683L111.23 37.1424L112.386 41.1078L120.645 38.5424L121.224 41.1078L110.418 44.2558L106.289 29.4376L117.288 26.2896H117.293ZM85.295 37.725L84.7168 35.351L105.326 29.6333L106.099 32.0073L101.581 33.1726L104.938 45.6559L102.159 46.4342L98.8406 34.1857L92.5489 35.7423L95.9062 48.0299L93.1272 49.0039L89.8088 36.5597L85.295 37.725ZM86.8787 47.4473L80.7813 49.0039L80.5871 52.3867L78.0411 53.165L79.3918 37.1424L82.5548 36.1684L91.3925 49.43L88.6134 50.2083L86.8744 47.4473H86.8787ZM81.3595 39.3208L80.9755 46.4385L85.4892 45.2733L81.3595 39.3251V39.3208ZM57.7724 47.056L60.3573 48.0299L59.546 45.2689L57.7681 47.056H57.7724ZM62.0963 53.9781L60.3616 56.3521L62.7177 56.1565L62.1006 53.9781H62.0963ZM60.7456 49.43L58.7779 51.8041L61.5181 52.191L60.7456 49.43Z" fill="#F9F9F9"/>
</svg>
