<svg width="190" height="82" viewBox="0 0 190 82" fill="none" xmlns="http://www.w3.org/2000/svg">
<path d="M75.013 12.6672C75.272 12.6962 75.5314 12.7269 75.7904 12.7547C77.9318 12.9826 79.827 13.7605 81.3669 15.2966C82.5669 16.4937 83.2878 17.9514 83.5846 19.613C83.8586 21.1462 83.7963 22.6683 83.2891 24.1509C82.5976 26.1736 81.2876 27.6898 79.4372 28.7437C78.1887 29.4543 76.8393 29.8449 75.4102 29.9624C73.7387 30.0998 72.11 29.9105 70.5605 29.2505C67.7683 28.0618 66.0005 26.0071 65.4377 22.9991C65.0301 20.8196 65.3642 18.7496 66.5526 16.8536C67.5583 15.2485 68.9853 14.1398 70.7269 13.4251C71.7434 13.0079 72.8031 12.7713 73.9014 12.7107C73.9682 12.707 74.0342 12.6821 74.1002 12.6667C74.4045 12.6667 74.7087 12.6672 75.013 12.6672ZM70.8091 21.4397C70.8224 21.5904 70.8319 21.7838 70.8581 21.9747C71.0034 23.0327 71.455 23.9231 72.3258 24.5673C73.0675 25.1164 73.9118 25.3161 74.8254 25.248C75.9456 25.1641 76.8476 24.6814 77.4939 23.7579C78.0766 22.9252 78.2617 21.988 78.1816 20.9856C78.0484 19.3116 76.968 17.8506 75.1475 17.5729C74.1152 17.4156 73.1489 17.6003 72.3046 18.2378C71.2599 19.0265 70.8515 20.1272 70.8091 21.4397Z" fill="#F9F9F9"/>
<path d="M47.5032 12.9253C47.6049 12.9253 47.6664 12.9253 47.7278 12.9253C50.3411 12.9258 52.9548 12.8979 55.5677 12.9357C57.6389 12.9656 59.5619 13.5318 61.2317 14.8027C62.8339 16.0222 63.8073 17.6372 64.1783 19.6146C64.476 21.201 64.3913 22.7642 63.828 24.2821C63.1872 26.0088 62.0428 27.3304 60.4834 28.2963C59.1576 29.1173 57.709 29.5747 56.1583 29.7096C55.8283 29.7382 55.4963 29.7557 55.1655 29.7561C52.7041 29.7598 50.2431 29.7582 47.7818 29.7582C47.5966 29.7582 47.5038 29.6631 47.5032 29.473C47.5032 24.0476 47.5032 18.6222 47.5032 13.1968C47.5032 13.1154 47.5032 13.0337 47.5032 12.9253ZM53.0237 25.5472C53.914 25.4974 54.7882 25.5049 55.6445 25.3862C56.6261 25.2496 57.4612 24.7773 58.0502 23.9501C58.7206 23.0078 58.8978 21.9428 58.7604 20.8175C58.5342 18.9675 57.3031 17.658 55.4652 17.3998C54.6778 17.2894 53.8684 17.3359 53.0689 17.3118C53.0577 17.3118 53.0461 17.3247 53.0241 17.338L53.0237 25.5472Z" fill="#F9F9F9"/>
<path d="M90.6346 52.58C90.7035 52.5742 90.7513 52.5668 90.799 52.5668C93.8265 52.5701 96.8545 52.5514 99.882 52.5887C101.089 52.6037 102.23 52.9407 103.199 53.7061C104.155 54.4607 104.645 55.4681 104.706 56.6743C104.791 58.3475 104.023 59.5557 102.616 60.3992C102.545 60.4419 102.472 60.4818 102.401 60.5237C102.39 60.5303 102.382 60.5419 102.349 60.5739C102.533 60.6523 102.707 60.7217 102.878 60.8001C103.893 61.2671 104.73 61.9324 105.199 62.9747C105.968 64.6852 105.514 67.4612 103.133 68.6524C102.3 69.0696 101.415 69.2954 100.492 69.3518C99.7965 69.3946 99.0975 69.395 98.3998 69.3962C95.9044 69.4008 93.409 69.3979 90.9135 69.3979C90.8251 69.3979 90.7367 69.3979 90.635 69.3979L90.6346 52.58ZM96.0019 65.7295C96.0725 65.7378 96.1198 65.7482 96.1671 65.7482C96.8931 65.749 97.6194 65.7586 98.345 65.7436C98.6326 65.7378 98.9261 65.7054 99.2042 65.634C99.6521 65.5191 100.012 65.2667 100.168 64.8064C100.429 64.0381 100.184 63.022 99.0162 62.8132C98.5733 62.7339 98.1105 62.7576 97.6564 62.7501C97.1073 62.741 96.5581 62.748 96.0019 62.748V65.7295ZM96.0177 56.5253C96.0119 56.5369 96.0007 56.5489 96.0007 56.5606C95.9978 57.4235 95.9969 58.286 95.992 59.149C95.9911 59.2826 96.0716 59.2901 96.1684 59.2884C96.8993 59.2776 97.6315 59.2913 98.3608 59.2502C99.3063 59.1967 99.8442 58.5243 99.7098 57.6194C99.6259 57.0549 99.1365 56.5963 98.4529 56.5514C97.6556 56.4987 96.8536 56.5186 96.0538 56.5079C96.0422 56.5079 96.0297 56.5187 96.0177 56.5253Z" fill="#F9F9F9"/>
<path d="M72.3478 32.7591H77.8649V32.9816C77.8649 36.645 77.8658 40.308 77.862 43.9714C77.862 44.0914 77.8338 44.2184 77.7898 44.3305C77.1319 46.0053 76.4666 47.6772 75.8112 49.3529C75.7468 49.5172 75.6717 49.5836 75.4862 49.5816C74.5253 49.5712 73.564 49.5766 72.6031 49.5766C72.5346 49.5766 72.4661 49.5766 72.3731 49.5766C72.3669 49.4707 72.3565 49.3778 72.3565 49.2848C72.3557 47.4116 72.3557 45.5388 72.3557 43.6655C72.3557 43.3912 72.3548 43.3912 72.0892 43.3912C70.5057 43.3912 68.9226 43.3912 67.3391 43.3912H67.0926V49.5571H61.5933V32.7637H67.0809V33.0127C67.0809 34.8166 67.0809 36.6205 67.0809 38.4248C67.0809 38.6019 67.1718 38.6906 67.3536 38.6909C68.9222 38.6909 70.4908 38.6909 72.0593 38.6909H72.3478V32.7591Z" fill="#F9F9F9"/>
<path d="M144.762 29.7623C144.081 29.7623 143.466 29.7623 142.852 29.7623C141.49 29.7623 140.129 29.7557 138.767 29.7685C138.535 29.7706 138.41 29.688 138.286 29.505C137.08 27.7189 135.863 25.9407 134.66 24.1522C134.529 23.9563 134.392 23.8998 134.161 23.9608C134.156 24.0476 134.145 24.1414 134.145 24.2356C134.145 25.9706 134.145 27.706 134.145 29.441C134.145 29.6544 134.034 29.7611 133.814 29.7611C132.577 29.7611 131.34 29.7582 130.103 29.7644C129.942 29.7652 129.861 29.7216 129.802 29.5635C129.507 28.7757 129.196 27.9941 128.895 27.208C128.859 27.1141 128.839 27.0079 128.839 26.9074C128.836 22.3176 128.836 17.7273 128.836 13.1374V12.9374C128.918 12.9328 128.984 12.9258 129.051 12.9258C131.872 12.9258 134.694 12.9154 137.515 12.932C138.648 12.9386 139.736 13.1806 140.72 13.7783C141.884 14.4856 142.61 15.5187 142.921 16.8361C143.238 18.1797 143.155 19.4972 142.552 20.7548C142.028 21.8481 141.192 22.6372 140.112 23.1759C140.027 23.2187 139.94 23.2594 139.817 23.3187C141.462 25.4617 143.094 27.589 144.762 29.7623ZM134.159 20.3833C134.924 20.3833 135.664 20.4116 136.4 20.3738C136.911 20.3476 137.368 20.1405 137.657 19.6781C138.289 18.6654 137.635 17.3869 136.425 17.3089C135.743 17.2649 135.058 17.2886 134.374 17.2699C134.187 17.2649 134.14 17.3313 134.142 17.5086C134.149 18.3927 134.145 19.2772 134.145 20.1613C134.145 20.2289 134.153 20.2966 134.159 20.3833Z" fill="#F9F9F9"/>
<path d="M78.8819 52.5659C78.8868 52.6751 78.8947 52.7627 78.8947 52.8502C78.8956 55.8085 78.896 58.7663 78.8947 61.7245C78.8947 62.2309 78.9283 62.7298 79.1035 63.2121C79.5211 64.3606 80.5077 64.8014 81.5636 64.7437C81.8882 64.7259 82.2269 64.6565 82.5258 64.5316C83.3555 64.185 83.7461 63.4881 83.8947 62.6401C83.947 62.3425 83.9636 62.0358 83.964 61.7332C83.969 58.775 83.9669 55.8172 83.9669 52.859C83.9669 52.6639 84.0647 52.5662 84.2604 52.5659C85.885 52.5659 87.5095 52.5688 89.1346 52.5622C89.3247 52.5614 89.3807 52.617 89.3803 52.8071C89.3732 55.9724 89.3877 59.1377 89.3645 62.3031C89.3516 64.0804 88.8415 65.7063 87.683 67.0884C86.684 68.2805 85.3877 68.9899 83.8909 69.3527C82.5254 69.6835 81.1457 69.7183 79.7572 69.5257C78.3726 69.3331 77.0887 68.8857 75.9772 68.0165C74.6552 66.983 73.8848 65.6062 73.5789 63.9771C73.4498 63.2893 73.3851 62.5799 73.3805 61.8801C73.3593 58.8671 73.3714 55.8533 73.3714 52.8403C73.3714 52.6585 73.4606 52.5673 73.6391 52.5667C75.3052 52.5667 76.9713 52.5667 78.6374 52.5667C78.7121 52.5667 78.7872 52.5667 78.881 52.5667L78.8819 52.5659Z" fill="#F9F9F9"/>
<path d="M96.2979 49.577H96.0729C94.3582 49.577 92.6436 49.5737 90.9293 49.582C90.7587 49.5828 90.6902 49.5239 90.6363 49.374C90.3478 48.5692 90.0465 47.7689 89.7601 46.9637C89.7049 46.8081 89.631 46.7524 89.4633 46.7528C87.5623 46.7587 85.6608 46.7587 83.7598 46.7528C83.5962 46.7524 83.5323 46.8147 83.4825 46.9575C83.1924 47.7835 82.8931 48.6061 82.6009 49.4313C82.5673 49.5259 82.5312 49.5795 82.417 49.5795C80.6887 49.5757 78.9603 49.5766 77.2319 49.5757C77.2116 49.5757 77.1917 49.5683 77.146 49.5591C77.2747 49.2279 77.4 48.9013 77.5287 48.5758C79.5862 43.375 81.645 38.1746 83.6992 32.9725C83.7631 32.811 83.8353 32.7413 84.0225 32.7421C85.8268 32.7504 87.6316 32.7496 89.4359 32.7429C89.6098 32.7421 89.6849 32.7994 89.7476 32.9588C91.7126 37.9504 93.6833 42.9404 95.6524 47.9304C95.8645 48.4675 96.0737 49.0054 96.2979 49.577ZM84.8809 43.1351H88.3604C87.7773 41.5478 87.2057 39.9917 86.6342 38.4356C86.6176 38.4352 86.6014 38.4344 86.5848 38.434C86.0186 39.9963 85.452 41.5586 84.8809 43.1351Z" fill="#F9F9F9"/>
<path d="M128.653 29.7577C128.547 29.7577 128.479 29.7577 128.411 29.7577C126.71 29.7577 125.009 29.7544 123.308 29.7627C123.121 29.7635 123.046 29.6988 122.987 29.5324C122.701 28.7267 122.4 27.9264 122.113 27.1212C122.062 26.9792 121.986 26.9348 121.84 26.9348C119.932 26.939 118.023 26.939 116.115 26.9344C115.962 26.9344 115.898 26.9934 115.85 27.1299C115.558 27.9559 115.258 28.7782 114.966 29.6037C114.929 29.7083 114.885 29.7606 114.764 29.7602C113.05 29.7565 111.335 29.7573 109.62 29.7569C109.593 29.7569 109.566 29.7503 109.508 29.7428C109.598 29.5104 109.68 29.2879 109.768 29.0671C111.825 23.8658 113.882 18.6649 115.939 13.4641C116.081 13.1058 116.346 12.9263 116.734 12.9258C118.427 12.9258 120.121 12.9282 121.815 12.922C121.972 12.9216 122.042 12.9706 122.099 13.1154C123.847 17.5559 125.6 21.9942 127.351 26.433C127.764 27.4782 128.174 28.5246 128.585 29.571C128.604 29.6212 128.621 29.6718 128.653 29.7577ZM117.243 23.3146H120.719C120.137 21.7303 119.566 20.1746 118.994 18.6189C118.977 18.6189 118.961 18.618 118.944 18.618C118.378 20.1808 117.812 21.7435 117.243 23.3146Z" fill="#F9F9F9"/>
<path d="M123.044 32.7558C123.048 32.8417 123.054 32.909 123.054 32.9766C123.055 34.2472 123.052 35.5181 123.06 36.7886C123.061 36.9721 123.006 37.0202 122.826 37.0198C120.475 37.014 118.124 37.0161 115.774 37.0161C115.565 37.0161 115.461 37.1223 115.46 37.3349C115.46 37.9292 115.467 38.5236 115.456 39.118C115.453 39.3036 115.513 39.35 115.693 39.3496C117.802 39.3438 119.91 39.3459 122.019 39.3459C122.088 39.3459 122.156 39.3459 122.244 39.3459V43.2222C122.154 43.2272 122.061 43.2368 121.967 43.2368C119.893 43.2376 117.819 43.2372 115.745 43.2376C115.556 43.2376 115.461 43.3313 115.46 43.5186C115.46 44.1408 115.468 44.7626 115.456 45.3848C115.453 45.5707 115.511 45.6147 115.691 45.6143C118.055 45.6085 120.42 45.6106 122.784 45.6106C122.874 45.6106 122.963 45.6106 123.071 45.6106V49.5604H109.955C109.955 49.4728 109.955 49.3923 109.955 49.3113C109.955 45.303 109.952 41.2942 109.96 37.2859C109.96 37.0871 110.025 36.8795 110.098 36.6915C110.585 35.438 111.084 34.189 111.574 32.9372C111.625 32.8073 111.682 32.7429 111.839 32.7433C115.509 32.7483 119.181 32.7475 122.852 32.7475C122.906 32.7475 122.962 32.7521 123.044 32.7558Z" fill="#F9F9F9"/>
<path d="M47.0923 43.7091C47.5929 43.9611 48.0565 44.2026 48.5268 44.4297C49.6716 44.9821 50.8354 45.4873 52.0873 45.7517C52.7045 45.882 53.3275 45.9646 53.958 45.8542C54.0992 45.8293 54.2411 45.7841 54.3698 45.7222C54.9683 45.4342 55.0621 44.6385 54.5292 44.2317C54.3096 44.0644 54.0415 43.9432 53.7775 43.8536C52.6356 43.4651 51.4821 43.1102 50.3419 42.7154C49.3437 42.3701 48.443 41.8591 47.7461 41.0381C47.1928 40.3861 46.8906 39.6244 46.7777 38.788C46.6606 37.9222 46.7192 37.0663 47.0022 36.2329C47.4518 34.9108 48.3479 33.9877 49.5757 33.3655C50.5885 32.8521 51.6747 32.6188 52.8004 32.5391C54.3357 32.4304 55.8483 32.5611 57.3367 32.9584C58.0324 33.1443 58.7023 33.3979 59.332 33.7486C59.3996 33.7864 59.471 33.891 59.4714 33.9649C59.4793 35.4994 59.4777 37.0339 59.4768 38.568C59.4768 38.6071 59.4677 38.6465 59.4606 38.7017C59.0721 38.4871 58.7031 38.2754 58.3271 38.0778C57.1541 37.4615 55.9321 36.9721 54.6134 36.7837C54.1182 36.7131 53.6102 36.7197 53.1084 36.7214C52.9374 36.7218 52.7547 36.7924 52.5974 36.8708C52.0495 37.1439 51.9669 37.8002 52.4513 38.177C52.685 38.3593 52.9714 38.4917 53.2532 38.5909C54.5541 39.0483 55.869 39.4658 57.1645 39.9378C58.0473 40.2595 58.8509 40.7318 59.4872 41.4474C60.0629 42.0953 60.3518 42.8615 60.4448 43.7149C60.5382 44.5733 60.4672 45.4117 60.1555 46.2199C59.6599 47.5041 58.7355 48.3878 57.5193 48.9859C56.5016 49.4865 55.4149 49.7194 54.288 49.7899C52.7323 49.887 51.1982 49.753 49.6878 49.3678C48.8555 49.1557 48.0599 48.8461 47.2974 48.4497C47.1546 48.3754 47.0865 48.2948 47.0873 48.1197C47.0956 46.7246 47.0923 45.3296 47.0923 43.9345C47.0923 43.8727 47.0923 43.8121 47.0923 43.7091Z" fill="#F9F9F9"/>
<path d="M91.2153 32.7467H91.4262C93.2031 32.7467 94.9796 32.7487 96.7565 32.7433C96.918 32.7429 96.9944 32.7832 97.0516 32.9451C98.2877 36.4201 99.5313 39.8921 100.774 43.365C100.796 43.4265 100.828 43.485 100.876 43.5929C101.077 43.0251 101.262 42.5083 101.443 41.9907C102.502 38.9719 103.56 35.9531 104.616 32.9334C104.659 32.8127 104.704 32.7421 104.858 32.7429C106.635 32.7496 108.412 32.7471 110.189 32.7475C110.236 32.7475 110.284 32.7546 110.359 32.7604C110.188 33.1949 110.024 33.6162 109.858 34.0371C107.959 38.854 106.06 43.6709 104.161 48.4878C104.039 48.7958 103.912 49.1017 103.797 49.4118C103.752 49.5309 103.692 49.5807 103.557 49.5803C101.719 49.5757 99.8795 49.5753 98.0407 49.5807C97.8942 49.5811 97.8403 49.5226 97.7913 49.3981C96.4593 46.0252 95.1228 42.654 93.7879 39.2824C92.9611 37.1933 92.1351 35.1034 91.3095 33.014C91.2776 32.933 91.2514 32.8492 91.2153 32.7467Z" fill="#F9F9F9"/>
<path d="M60.3061 59.1506C59.9413 58.9095 59.5968 58.672 59.2427 58.45C58.2167 57.807 57.1113 57.3749 55.8989 57.2649C54.6491 57.1516 53.4379 57.2683 52.377 58.0287C51.4551 58.6895 50.9803 59.6047 50.8935 60.7283C50.8147 61.7506 51.0758 62.6717 51.7361 63.4628C52.3542 64.2033 53.1648 64.6267 54.1004 64.8085C55.4452 65.0695 56.7515 64.894 58.0228 64.4112C58.7762 64.1248 59.4627 63.7147 60.121 63.2544C60.1758 63.2162 60.2323 63.181 60.3095 63.1307C60.3144 63.2158 60.3203 63.2752 60.3203 63.3341C60.3207 64.8479 60.3186 66.3612 60.324 67.875C60.3244 68.0253 60.2804 68.1108 60.1476 68.1847C58.909 68.8733 57.5932 69.3182 56.1832 69.4867C55.3091 69.5913 54.4325 69.6312 53.5567 69.559C50.984 69.346 48.7447 68.4283 47.0649 66.3911C46.102 65.2231 45.5553 63.8658 45.3432 62.3707C45.1166 60.7752 45.2448 59.2137 45.8479 57.7124C46.8001 55.3411 48.5521 53.8053 50.9297 52.9548C52.3949 52.431 53.9124 52.2974 55.4598 52.3995C56.81 52.4887 58.1096 52.7672 59.3237 53.379C59.625 53.531 59.9126 53.7115 60.1974 53.8929C60.2584 53.9319 60.3153 54.0315 60.3157 54.1033C60.3223 55.7483 60.3207 57.3932 60.3198 59.0381C60.3198 59.0701 60.3124 59.1021 60.3061 59.1506Z" fill="#F9F9F9"/>
<path d="M90.3383 12.9361V25.4422H96.6133C96.6204 25.5356 96.6303 25.6083 96.6303 25.6805C96.6312 26.9589 96.6274 28.2373 96.6349 29.5157C96.6361 29.7029 96.5855 29.7619 96.3925 29.7615C92.6112 29.7561 88.8299 29.7561 85.0486 29.7615C84.8618 29.7615 84.8186 29.7034 84.819 29.5253C84.8236 24.0659 84.8228 18.6064 84.8232 13.147C84.8232 13.0797 84.8307 13.0125 84.8352 12.9361H90.3383Z" fill="#F9F9F9"/>
<path d="M67.0789 65.099H67.3848C69.065 65.099 70.7452 65.1015 72.4254 65.0949C72.5902 65.094 72.6649 65.1426 72.723 65.2987C73.2057 66.5978 73.6989 67.8937 74.1882 69.1904C74.2098 69.2476 74.2289 69.3058 74.2559 69.3821H61.5821C61.5775 69.302 61.5688 69.2219 61.5688 69.1418C61.568 63.7015 61.5688 58.2615 61.5642 52.8212C61.5642 52.6278 61.6074 52.5601 61.8141 52.5614C63.4872 52.5697 65.1608 52.5659 66.834 52.5663C66.9079 52.5663 66.9822 52.5734 67.0785 52.5784L67.0789 65.099Z" fill="#F9F9F9"/>
<path d="M103.38 25.4526H109.972C109.811 25.8639 109.663 26.2483 109.512 26.631C109.124 27.6122 108.731 28.5918 108.347 29.5747C108.295 29.71 108.228 29.7615 108.078 29.7615C104.752 29.7573 101.427 29.7582 98.1009 29.7577C98.0391 29.7577 97.9777 29.7523 97.8976 29.7486V12.9415H103.379L103.38 25.4526Z" fill="#F9F9F9"/>
<path d="M110.645 54.5251C110.644 55.6935 109.709 56.6266 108.538 56.627C107.361 56.6274 106.425 55.686 106.429 54.5043C106.432 53.3429 107.379 52.4069 108.549 52.4099C109.714 52.4132 110.646 53.3541 110.645 54.5251ZM108.545 56.1409C109.416 56.1409 110.15 55.4079 110.16 54.5284C110.169 53.6526 109.417 52.8963 108.541 52.8988C107.665 52.9013 106.919 53.6368 106.915 54.5018C106.911 55.3971 107.65 56.1405 108.545 56.1409Z" fill="#F9F9F9"/>
<path d="M108.249 55.4934H107.814V53.5198C108.176 53.5401 108.54 53.5397 108.898 53.5882C109.097 53.6156 109.236 53.7742 109.274 53.985C109.316 54.2146 109.284 54.4275 109.086 54.5832C109.027 54.6292 108.961 54.6666 108.868 54.7276C109.066 54.9762 109.261 55.2199 109.469 55.4814C109.155 55.5333 108.893 55.5382 108.735 55.2211C108.677 55.1057 108.587 55.004 108.501 54.9053C108.451 54.848 108.38 54.8086 108.318 54.7612C108.295 54.8397 108.257 54.9169 108.252 54.9966C108.242 55.1539 108.249 55.3125 108.249 55.4934ZM108.246 54.1835C108.244 54.3059 108.21 54.4582 108.449 54.4433C108.706 54.4271 108.836 54.3557 108.842 54.1793C108.848 53.988 108.716 53.9095 108.425 53.9016C108.213 53.8962 108.244 54.0353 108.246 54.1835Z" fill="#F9F9F9"/>
</svg>
