<svg width="190" height="82" viewBox="0 0 190 82" fill="none" xmlns="http://www.w3.org/2000/svg">
<path fill-rule="evenodd" clip-rule="evenodd" d="M66.1361 38.1829H61.9657V33.4255H66.0917C68.4627 36.0443 66.1361 38.1829 66.1361 38.1829ZM66.1361 47.5228H61.9657V42.7654H66.0917C68.4627 45.4275 66.1361 47.5228 66.1361 47.5228ZM76.4963 48.5267V42.897C76.4963 40.4088 74.2576 40.06 74.2576 40.06C76.5407 40.1466 76.4963 37.397 76.4963 37.397V32.4657C76.4963 29.6288 73.819 29.2791 73.819 29.2791H52.3946V52.1928H73.4675C76.4093 52.1486 76.4963 48.5267 76.4963 48.5267ZM95.0224 43.508H97.1742V51.7566H107.227V29.3665H97.1742V37.0924H95.0233V29.3656H84.9693V51.7557H95.0233V43.5062L95.0224 43.508ZM155.519 51.7566H165.573V29.3665H155.519V51.7566ZM138.661 29.3665H131.461V51.7566H141.514V43.5071H150.646V37.7034H141.514V34.9971H152.183V29.3665H138.661ZM128.959 37.3096H122.681V43.7261H128.959V37.3096ZM110.433 51.7566H120.486V29.3665H110.433V51.7566ZM48.2242 47.7851V29.2358H38.741V46.1269C38.5218 47.1299 37.556 47.1299 37.556 47.1299C37.556 47.1299 36.8973 47.2173 35.8001 47.174C34.6585 47.3047 34.3514 46.126 34.3514 46.126V41.1946H24.4732C24.4732 41.1946 24.4297 45.2527 24.4297 48.3519C24.4297 51.5385 27.5464 52.1486 27.5464 52.1486H45.8097C48.5314 51.5818 48.2242 47.7851 48.2242 47.7851Z" fill="#F9F9F9"/>
</svg>
