<svg width="190" height="82" viewBox="0 0 190 82" fill="none" xmlns="http://www.w3.org/2000/svg">
<path d="M48.7317 29.603V32.4697H46.6849V37.0563H48.7317V39.8772C48.7317 44.5556 49.3913 46.7572 51.2562 48.3625C52.4842 49.4175 53.8943 49.8991 55.8274 49.8991H57.3739V45.3124H56.7144C55.6 45.3124 54.6448 44.8308 54.2354 44.074C53.9398 43.5236 53.8488 42.6292 53.7806 40.2212L53.6896 37.0793L55.4863 37.0105L57.2602 36.9417L57.3284 34.6942L57.3966 32.4697H53.7351V26.7363H48.7317V29.603ZM98.3104 38.3177V49.8991H103.314V26.7363H98.3104V38.3177ZM144.364 27.195C142.954 28.1352 142.886 28.4792 142.886 35.4739C142.886 41.666 142.886 41.8265 143.409 42.5833C144.227 43.8446 145.137 44.1657 147.844 44.1657H150.163V40.7257H146.297V30.1763H150.163V26.7363H147.616C145.433 26.7363 144.932 26.8051 144.364 27.195ZM152.892 28.4334V30.1763H156.531V40.7257H152.892V44.1657H155.167C157.827 44.1657 158.714 43.8676 159.51 42.7668C160.056 41.987 160.056 41.8953 160.124 35.9097C160.17 32.1027 160.124 29.5342 159.965 29.0296C159.829 28.571 159.419 27.9059 159.033 27.539C158.328 26.8739 158.26 26.851 155.599 26.7822L152.892 26.6904V28.4334ZM35.2454 31.0936C33.0394 31.667 31.0608 33.3411 30.4468 35.1529C29.5598 37.7902 30.5605 40.0606 33.1531 41.2761C33.8127 41.5972 35.723 42.1246 37.3832 42.4686C40.7491 43.1337 41.4541 43.4318 41.4541 44.2804C41.4541 45.106 40.317 45.6334 38.4976 45.6334C36.8147 45.6334 35.814 45.1977 35.0408 44.1657C34.5404 43.4777 34.5404 43.4777 32.1979 43.4777H29.8555V44.2116C29.8782 45.8398 31.3337 48.0185 33.1531 49.0735C35.5183 50.4953 39.3846 50.7247 42.2501 49.6468C43.9331 49.0047 45.7752 47.2388 46.1846 45.8628C46.7759 43.7988 46.321 41.5054 45.0702 40.3358C44.0923 39.4414 42.0909 38.7076 38.9752 38.1113C35.814 37.4921 35.3137 37.2857 35.3137 36.5518C35.3137 35.4969 38.6341 35.0382 40.0441 35.9097C40.4307 36.1619 40.7719 36.4601 40.7719 36.5977C40.7719 36.7353 41.7725 36.827 43.3873 36.827C46.412 36.827 46.412 36.827 45.4113 34.8089C44.7063 33.387 43.6147 32.3779 41.9317 31.5982C40.9083 31.1166 40.2488 31.0019 38.3839 30.956C37.1331 30.9102 35.723 30.979 35.2454 31.0936ZM64.1966 31.2312C61.6495 31.9193 59.6936 33.6622 58.4655 36.2995C57.4876 38.3865 57.3057 41.5054 58.0334 43.8905C58.9204 46.826 61.1946 49.2111 63.8782 50.0367C66.1525 50.7247 68.9726 50.2889 70.7465 48.9817L71.7017 48.2937V49.8991H76.4776V31.323H71.4742V32.9283L70.4963 32.2174C69.4501 31.4835 67.4943 30.8643 66.2435 30.8872C65.8113 30.8872 64.8789 31.0478 64.1966 31.2312ZM69.1772 36.4371C71.497 37.9966 72.0655 41.7806 70.2689 43.8446C68.1083 46.3444 64.7197 46.0462 63.196 43.2484C62.6274 42.1934 62.5592 41.8724 62.6501 40.3817C62.7184 38.9598 62.8321 38.5241 63.4006 37.6985C64.7879 35.6803 67.2441 35.1529 69.1772 36.4371ZM86.1431 31.1624C84.9605 31.5753 84.21 31.9651 83.596 32.5385L83.0729 32.9971V31.323H78.297V54.738L80.7532 54.6692L83.1866 54.6004L83.2548 51.5732L83.3231 48.546L84.1418 49.1193C85.4381 50.0137 87.2348 50.4265 89.0087 50.2889C93.0341 49.9449 96.2635 46.6655 96.9686 42.1476C97.6508 37.8819 95.513 33.4787 91.897 31.6899C90.3505 30.9331 87.6214 30.6808 86.1431 31.1624ZM89.2816 35.9785C90.4187 36.4601 91.6013 37.9737 91.9197 39.3038C92.8977 43.3401 89.1906 46.826 85.802 45.083C84.0963 44.2116 83.1866 42.3081 83.3458 40.0148C83.5732 36.9417 86.6207 34.8777 89.2816 35.9785ZM111.001 31.3001C109.34 31.8505 108.431 32.4238 107.157 33.7769C105.042 36.0014 104.36 37.9049 104.496 41.1385C104.61 44.0969 105.383 45.794 107.498 47.7892C109.227 49.4175 110.864 50.1284 113.229 50.2889C117.096 50.5641 120.416 48.8441 121.94 45.7252C122.326 44.9454 122.645 44.1886 122.645 44.0052C122.645 43.7758 122.076 43.707 120.143 43.707H117.641L116.755 44.6014C114.753 46.6196 111.228 46.0233 109.864 43.4777L109.454 42.675L116.277 42.6062L123.1 42.5604V40.8862C123.1 36.6435 121.098 33.1806 117.71 31.6211C115.959 30.8184 112.888 30.6579 111.001 31.3001ZM115.526 35.7033C116.322 36.0014 117.346 36.9646 117.778 37.7902L118.119 38.4323H113.889C111.569 38.4323 109.682 38.3406 109.682 38.2259C109.682 37.7443 110.796 36.4371 111.615 35.9785C112.615 35.4051 114.412 35.2675 115.526 35.7033ZM128.672 31.1854C126.375 31.9193 125.056 32.9971 124.26 34.763C123.646 36.139 123.646 37.6297 124.305 38.891C125.26 40.8174 127.057 41.7577 131.06 42.4457C133.993 42.9502 134.676 43.2025 134.971 43.8446C135.335 44.6244 134.698 45.2436 133.22 45.5188C131.56 45.8398 130.013 45.45 129.058 44.4868L128.285 43.707H123.282L123.418 44.4409C124.009 47.3993 126.625 49.6009 130.241 50.1743C135.79 51.0457 140.589 47.7433 140.111 43.386C139.77 40.3358 137.7 38.9598 132.219 38.0654C129.377 37.6067 128.581 37.171 129.013 36.3454C129.695 35.0611 133.448 35.2446 134.289 36.5747C134.562 37.0105 134.789 37.0563 137.155 37.0563H139.747L139.588 36.2995C139.11 34.1209 137.132 32.0569 134.767 31.323C133.061 30.7955 130.104 30.7267 128.672 31.1854Z" fill="#F9F9F9"/>
</svg>
