<svg width="190" height="82" viewBox="0 0 190 82" fill="none" xmlns="http://www.w3.org/2000/svg">
<path d="M51.9193 34.776C51.0021 30.2362 47.9068 27.0034 42.2665 26.9575H42.0142C39.2293 26.8651 36.4733 27.547 34.0527 28.9273C31.6321 30.3076 29.6418 32.3322 28.3031 34.776C26.9131 37.3937 26.2035 40.3188 26.2396 43.2824C26.2396 49.2667 29.6788 53.0499 34.0581 54.1046C35.8545 54.5104 37.7187 54.5104 39.5151 54.1046C41.2315 53.7311 42.778 52.8048 43.9173 51.4678V53.8524L43.9402 53.9441C43.9861 54.0358 44.0778 54.1046 44.1924 54.1046H47.9756L48.1132 54.0587C48.182 54.0128 48.2278 53.967 48.2507 53.8753L50.8646 40.8979C50.8875 40.8062 50.8646 40.7145 50.8187 40.6457C50.7728 40.5769 50.6811 40.531 50.5894 40.531H41.0054C40.8678 40.531 40.7532 40.6227 40.7303 40.7603L40.0195 44.2683V44.3142L40.0424 44.4288C40.0883 44.5205 40.18 44.5893 40.2946 44.5893H45.1096C44.6052 46.1084 43.6321 47.4283 42.3302 48.3594C41.0284 49.2905 39.4647 49.7848 37.8642 49.7711C34.0123 49.7711 31.6048 47.0885 31.6048 42.5258C31.6048 39.5451 32.5907 36.7708 34.3103 34.7531C35.9841 32.7813 38.3687 31.5432 41.1888 31.5432C43.8485 31.5432 45.4076 32.7125 46.4394 34.7531C46.7145 35.2805 46.9438 35.8307 47.1273 36.4039C47.196 36.5415 47.3336 36.6103 47.4712 36.5644L51.7817 35.4639L51.8734 35.441C51.9651 35.3951 52.0339 35.2805 52.011 35.1658L51.9193 34.776ZM62.4663 27.2326C62.4663 27.0721 62.3287 26.9575 62.1911 26.9575H57.8118C57.6743 26.9575 57.5596 27.0492 57.5367 27.1868L56.0234 34.776L52.2173 53.7606C52.1944 53.8065 52.2173 53.8753 52.2403 53.9211C52.2861 54.0358 52.4008 54.1046 52.5154 54.0816H56.8947L57.0323 54.0358C57.1011 54.0128 57.1469 53.9441 57.1698 53.8753L60.9989 34.7531L62.4892 27.2556L62.4663 27.2326ZM76.1315 34.776C74.2468 34.4023 72.3071 34.4023 70.4224 34.776C67.8976 35.4022 65.6706 36.8903 64.126 38.9833C62.5813 41.0763 61.8159 43.643 61.9618 46.2402C61.9035 48.0596 62.4838 49.842 63.6019 51.2784C64.7201 52.7148 66.3056 53.7147 68.0837 54.1046C69.968 54.4819 71.9085 54.4819 73.7928 54.1046C76.3176 53.4784 78.5446 51.9903 80.0892 49.8973C81.6339 47.8043 82.3993 45.2376 82.2534 42.6404C82.2534 38.8573 79.9835 35.739 76.1315 34.776ZM75.5125 48.2808C74.4807 49.5877 73.0591 50.3443 71.1102 50.3443C68.7715 50.3443 67.2354 48.5101 67.2354 45.5065C67.2354 43.4429 67.7168 41.8379 68.7028 40.5998C69.7345 39.2929 71.1561 38.5363 73.105 38.5363C75.4437 38.5363 76.9799 40.3705 76.9799 43.3741C76.9799 45.4377 76.4984 47.0427 75.5125 48.2808ZM98.67 37.5504C98.0051 36.2893 96.4918 35.2575 94.7493 34.776C94.0385 34.5697 93.3048 34.478 92.5482 34.478C91.6998 34.478 90.8286 34.5697 90.0031 34.776C87.2059 35.5097 85.578 37.5045 85.578 40.3705C85.578 42.9385 87.3205 44.4288 89.6592 45.5065C91.9062 46.5382 93.0755 47.2261 93.0755 48.3496C93.0755 49.7253 91.8832 50.3443 90.5305 50.3443C88.6504 50.3443 87.2976 49.2208 86.7244 47.3407C86.7015 47.2719 86.6327 47.2032 86.5639 47.1802H86.3346L82.6432 48.6476C82.5285 48.6935 82.4597 48.7852 82.4597 48.8998V48.9457C82.7738 50.1838 83.4137 51.3151 84.3128 52.2223C85.2119 53.1295 86.3375 53.7794 87.5727 54.1046C89.2702 54.4949 91.0341 54.4949 92.7316 54.1046C95.7581 53.3938 97.7758 51.3532 97.7758 47.7076C97.7758 45.025 95.7123 43.7181 93.6487 42.8009C92.296 42.1819 90.2095 41.6087 90.2095 40.2788C90.2095 39.1783 91.0808 38.5592 92.1584 38.5592C93.1902 38.5592 94.3595 39.0178 95.0703 40.0266C95.1161 40.0954 95.2078 40.1413 95.2996 40.1413L95.4371 40.0954L98.5095 37.9401L98.5324 37.9172C98.6929 37.8255 98.7388 37.6879 98.67 37.5504ZM111.074 34.776C110.363 34.5697 109.63 34.478 108.873 34.478C107.956 34.478 107.108 34.5926 106.328 34.776C103.531 35.5097 101.903 37.5045 101.903 40.3705C101.903 42.9385 103.645 44.4288 105.984 45.5065C108.254 46.5382 109.4 47.2261 109.4 48.3496C109.4 49.7253 108.208 50.3443 106.855 50.3443C104.975 50.3443 103.623 49.2208 103.049 47.3178C102.981 47.1802 102.82 47.1114 102.682 47.1802L99.0139 48.6476C98.8993 48.6935 98.8305 48.7852 98.8305 48.8998V48.9457C99.1482 50.1795 99.7896 51.3061 100.689 52.2091C101.587 53.112 102.711 53.7584 103.944 54.0816C105.649 54.4654 107.417 54.4732 109.125 54.1046C112.152 53.3938 114.17 51.3532 114.17 47.7076C114.17 45.025 112.106 43.7181 110.042 42.8009C108.69 42.1819 106.603 41.6087 106.603 40.2788C106.603 39.1783 107.474 38.5592 108.552 38.5592C109.584 38.5592 110.753 39.0178 111.441 40.0037C111.533 40.1183 111.693 40.1642 111.831 40.0725L114.949 37.8943C115.041 37.8255 115.087 37.665 115.018 37.5504C114.114 36.1483 112.699 35.1533 111.074 34.776ZM123.868 34.776H119.489C119.374 34.776 119.26 34.8448 119.214 34.9824L115.431 53.7606V53.8294C115.431 53.9899 115.568 54.1046 115.706 54.1046H120.085C120.223 54.1046 120.314 54.0358 120.36 53.8982L124.143 35.0741V35.0512C124.143 34.9824 124.12 34.9136 124.052 34.8448C124.006 34.799 123.937 34.776 123.868 34.776ZM139.276 34.776C138.451 34.5697 137.602 34.455 136.754 34.478C135.745 34.478 134.782 34.5926 133.888 34.776C131.344 35.3009 129.06 36.6912 127.425 38.7103C125.791 40.7294 124.906 43.2526 124.923 45.8504C124.923 50.2755 127.376 53.1874 130.953 54.0816C132.767 54.4687 134.642 54.4687 136.456 54.0816C139.23 53.4626 141.271 51.8576 143.151 49.2208C143.197 49.1521 143.197 49.0833 143.174 49.0145C143.151 48.9457 143.105 48.8769 143.036 48.854L139.574 47.1344L139.459 47.1114C139.418 47.11 139.377 47.12 139.34 47.1402C139.304 47.1604 139.274 47.1901 139.253 47.2261C137.832 49.2208 136.181 50.3443 133.911 50.3443C131.297 50.3443 129.875 48.5789 129.875 46.5841V45.988H143.999L144.137 45.9421C144.206 45.9192 144.251 45.8504 144.251 45.7816C144.389 45.3001 144.756 43.9015 144.756 42.2277C144.756 38.6509 142.876 35.6932 139.276 34.776ZM130.815 42.2277C131.641 40.233 133.636 38.5592 136.112 38.5592C138.611 38.5592 139.757 39.8203 139.918 42.2277H130.815ZM160.737 39.0866L160.897 39.1324L161.035 39.0866C161.081 39.0636 161.127 39.0178 161.15 38.949L162.594 35.2346L162.617 35.12C162.617 35.0053 162.548 34.9136 162.434 34.8678L162.158 34.776C160.789 34.3702 159.332 34.3702 157.963 34.776C156.325 35.2963 154.885 36.3042 153.835 37.665L154.363 35.12V35.0512C154.363 34.9824 154.34 34.9136 154.271 34.8448C154.225 34.799 154.156 34.7531 154.065 34.776H149.685C149.548 34.776 149.433 34.8678 149.41 35.0053L145.696 53.7836V53.8294L145.719 53.9441C145.765 54.0358 145.856 54.1046 145.971 54.1046H150.35L150.488 54.0587C150.557 54.0128 150.603 53.967 150.625 53.8982L151.978 47.249C153.171 41.1501 156.564 38.7426 159.04 38.7426C159.705 38.7197 160.278 38.8573 160.737 39.0866ZM122.561 27.2556C120.933 27.2556 119.741 28.4478 119.741 29.984C119.741 31.5202 120.933 32.7125 122.561 32.7125C124.189 32.7125 125.381 31.5202 125.381 29.984C125.381 28.4478 124.189 27.2556 122.561 27.2556ZM160.989 49.0145C159.361 49.0145 158.169 50.2068 158.169 51.743C158.166 52.108 158.236 52.47 158.376 52.807C158.517 53.1441 158.724 53.4493 158.985 53.7042C159.247 53.9591 159.557 54.1585 159.897 54.2904C160.238 54.4222 160.601 54.4838 160.966 54.4714C161.516 54.4714 161.998 54.3338 162.411 54.1046C163.259 53.6231 163.786 52.7289 163.763 51.743C163.809 50.2068 162.617 49.0145 160.989 49.0145Z" fill="#F9F9F9"/>
</svg>
