<svg width="190" height="82" viewBox="0 0 190 82" fill="none" xmlns="http://www.w3.org/2000/svg">
<path d="M9.04688 32.5715H21.9653V35.8118H12.2871V39.0521H18.7336V42.2923H12.2871V45.4985H21.9994V48.7387H9.04688V32.5715Z" fill="#F9F9F9"/>
<path d="M35.9831 48.7302L29.5026 32.5715H32.9731L37.6459 44.0574L42.2249 32.5715H45.6954L39.2489 48.7302H35.9831Z" fill="#F9F9F9"/>
<path d="M54.062 32.5715H66.9805V35.8118H57.2682V39.0521H63.7146V42.2923H57.2682V45.4985H66.9805V48.7387H54.062V32.5715Z" fill="#F9F9F9"/>
<path d="M88.3473 41.6528L90.6667 48.7302H87.29L85.1753 42.2838H79.5304V48.7302H76.2901V32.5715H85.9768C87.2985 32.5715 88.5264 33.0576 89.4473 33.9785C90.3683 34.8994 90.8799 36.1273 90.8543 37.449C90.8713 39.1885 89.8993 40.8257 88.3473 41.6528ZM79.5304 39.018H85.9768C86.4032 39.018 86.804 38.8474 87.1195 38.5319C87.435 38.2164 87.6055 37.8156 87.6055 37.3893C87.6055 36.4684 86.8892 35.7521 85.9683 35.7521H79.5219C79.5304 35.7521 79.5304 39.018 79.5304 39.018Z" fill="#F9F9F9"/>
<path d="M100.414 48.7302V32.5715H103.654V45.49H111.738V48.7302H100.414Z" fill="#F9F9F9"/>
<path d="M131.128 45.49H124.477L123.155 48.7302H119.685L126.174 32.5715H129.414L135.886 48.7302H132.415L131.128 45.49ZM129.806 42.2838L127.768 37.2443L125.739 42.2838H129.806Z" fill="#F9F9F9"/>
<path d="M158.262 32.5715V48.7302H155.022L146.972 37.9862V48.7302H143.732V32.5715H146.972L155.047 43.3156V32.5715H158.262Z" fill="#F9F9F9"/>
<path d="M168.025 32.5715H180.952V35.8118H171.239V39.0521H177.686V42.2923H171.239V45.4985H180.952V48.7387H168.025V32.5715Z" fill="#F9F9F9"/>
</svg>
