<svg width="210" height="90" viewBox="0 0 210 90" fill="none" xmlns="http://www.w3.org/2000/svg">
<g opacity="0.9" clip-path="url(#clip0_6141_310106)">
<path d="M139.96 44.1366V58.1509H135.344V37.4541C137.189 37.4541 139.071 37.4179 140.948 37.4926C141.236 37.4926 141.548 37.9995 141.776 38.3253C144.625 42.4212 147.465 46.5224 150.297 50.6289C150.44 50.8326 150.599 51.0272 150.92 51.4526V37.5197H155.631V58.2075C153.844 58.2075 152.115 58.2437 150.382 58.1758C150.076 58.1623 149.712 57.7685 149.5 57.463C146.474 53.1272 143.461 48.7824 140.461 44.4285C140.378 44.3085 140.28 44.2022 140.188 44.0868L139.96 44.1366Z" fill="black"/>
<path d="M79.5626 47.8021C79.5872 41.7532 84.3155 36.9173 90.1383 37.0011C92.9406 37.0523 95.6098 38.2219 97.5658 40.2558C99.5218 42.2897 100.607 45.0235 100.584 47.8632C100.544 53.8713 95.7868 58.7049 89.9618 58.6574C84.1368 58.6099 79.5358 53.7944 79.5626 47.8021ZM89.9908 41.8687C86.7768 41.8845 84.3066 44.4733 84.3043 47.8315C84.3021 51.1897 86.8863 53.8781 90.0981 53.8351C93.3098 53.7921 95.7868 51.1626 95.7734 47.8383C95.7734 44.419 93.2897 41.8551 89.9908 41.8687Z" fill="black"/>
<path d="M64.359 46.3289C67.1888 50.2845 69.9427 54.1474 72.8575 58.2048C70.7334 58.2048 68.8193 58.2388 66.9096 58.1709C66.6126 58.1709 66.2642 57.7183 66.0564 57.406C64.4193 54.9055 62.8112 52.3891 61.2924 50.0266C60.5553 50.6738 59.8071 51.2576 59.1817 51.9229C58.945 52.1741 58.8757 52.6629 58.869 53.0544C58.8378 54.7131 58.8556 56.3741 58.8556 58.1256H54V37.5329H58.84V45.9465L61.6363 42.8553C62.7531 41.6311 63.9592 40.4883 64.9285 39.1622C65.976 37.7343 67.2179 37.2138 68.9287 37.4175C70.0455 37.5532 71.198 37.4446 72.5894 37.4446L64.359 46.3289Z" fill="black"/>
<path d="M119.575 58.1709H114.902V41.9004H107.031V37.4922H127.318V41.8302H119.575V58.1709Z" fill="black"/>
</g>
<defs>
<clipPath id="clip0_6141_310106">
<rect width="101.629" height="21.6586" fill="white" transform="translate(54 37)"/>
</clipPath>
</defs>
</svg>
