<svg width="142" height="80" viewBox="0 0 142 80" fill="none" xmlns="http://www.w3.org/2000/svg">
<path fill-rule="evenodd" clip-rule="evenodd" d="M84.0966 29.4046C84.6771 29.4046 84.7216 29.4277 85.1649 30.7289C85.6395 32.1194 85.5859 32.2607 84.3153 32.5462C83.1288 32.8151 81.0335 33.0718 80.243 33.2035C79.4542 33.3359 79.1506 33.3326 78.6727 32.3509C76.5855 32.3303 73.84 32.576 71.9218 32.8275C70.8781 33.7714 69.6506 35.048 68.3407 36.513C70.0789 36.3568 71.6591 36.2769 72.8407 36.265C73.4476 36.2579 73.5575 36.3613 73.9804 37.6439C74.4687 39.1241 74.491 39.5268 73.5136 39.4808C70.3738 39.3349 67.9272 39.479 65.62 39.6742C62.0366 43.983 58.3675 48.8947 56.4471 51.8011C55.7838 52.8042 55.5658 52.7222 55.0057 50.9281C54.534 49.4163 54.6173 48.9887 55.1464 48.1566C56.6107 45.8515 58.6878 43.0467 60.8778 40.349L60.7011 40.3822C60.2653 40.4677 60.0913 40.1498 59.8231 39.2523C59.4686 38.065 59.3597 37.9764 60.3973 37.7298C61.4646 37.4808 62.5393 37.2703 63.618 37.099C64.5972 35.9784 65.6045 34.8906 66.6386 33.8373C65.6874 34.0356 64.7921 34.22 63.9657 34.3675C63.4823 34.4539 63.1158 34.4285 62.6386 33.307C62.1731 32.2128 61.9899 31.9572 63.1971 31.7074C69.9459 30.3097 76.6304 29.4046 84.0966 29.4046ZM32.4891 29.4056C34.4171 28.1594 34.9699 28.3259 36.7919 28.7875C39.0294 29.3544 38.9024 29.7987 37.6395 30.849C36.8302 31.5209 36.0016 32.1625 35.1552 32.7728C33.9185 33.6731 33.9393 33.5669 32.0536 33.5287C27.0846 36.896 23.1574 40.6764 18.1278 45.4173C20.7696 45.1255 24.4411 45.0739 28.5106 45.4271C28.5002 45.3883 28.4889 45.3503 28.4784 45.3128C27.9699 43.4863 27.9824 43.721 28.5253 43.0023C30.5131 40.37 33.9341 36.8784 34.8124 36.0726C35.6906 35.2661 36.0149 34.7833 36.8925 36.556C37.6873 38.1608 37.678 38.3286 36.7538 39.1878C35.9121 39.9703 31.8919 43.8694 30.3749 45.6166C33.4239 45.9659 36.6346 46.5425 39.7606 47.4105C41.927 48.011 41.8366 47.908 42.6093 49.8158C43.4163 51.8078 43.1087 51.6113 42.0028 51.2591C29.5199 47.2742 19.4002 47.3426 14.8554 48.3031C13.826 49.1971 12.6597 49.9704 11.872 50.4007C10.3908 51.2074 10.3555 51.1741 9.4618 49.6781C8.80772 48.585 8.85538 48.4407 9.52234 47.8919C10.1889 47.343 11.8859 46.449 13.9462 46.0375C21.945 37.3779 29.8036 31.1424 32.4891 29.4056ZM92.4286 29.5951C93.2698 28.8445 93.3366 29.2197 93.9921 30.4798C94.4876 31.4353 94.6893 31.7432 94.411 32.1644C100.948 31.3442 106.959 31.1019 112.018 31.5023C113.158 31.5929 113.34 31.9116 114.001 32.8656C114.662 33.8197 115.16 34.4117 113.821 34.2972C105.925 33.6234 98.4525 33.9737 91.8192 35.0287C89.3489 37.7542 85.6841 41.8349 84.4374 43.2933C89.5786 39.9428 94.8875 36.3022 96.9374 35.014C97.4802 34.6159 97.4987 34.8774 98.1884 35.6605C98.7897 36.3419 99.0293 36.6826 98.6698 37.1595C98.3093 37.6366 98.1873 37.8411 97.3475 38.7953C98.6086 37.8411 100.533 36.8277 101.492 36.6146C102.109 36.4783 102.139 36.4614 102.754 37.1761C103.355 37.8755 103.355 37.8922 102.935 39.0687C102.523 40.2212 101.748 42.0677 101.133 43.0218C102.014 42.7058 103.176 42.4011 103.923 42.1107C104.609 39.2689 107.337 35.2523 111.278 35.2523C112.96 35.2523 114.522 35.7977 114.522 37.9105C114.522 39.5872 109.773 41.4165 106.842 42.5365C106.603 44.2791 107.188 43.8529 108.214 43.3626C109.303 42.8422 113.917 40.2739 115.922 38.9154C115.158 36.866 116.662 34.7748 120.522 34.7748C121.183 34.7748 122.445 35.0473 123.009 35.3285C123.6 35.6241 123.591 35.6358 123.707 36.4779C123.842 37.4662 123.571 37.7904 122.806 37.6371C122.466 37.5697 121.61 37.4251 120.169 37.4251C118.339 37.4253 118.248 38.4209 119.899 39.9691C121.471 39.2318 123.415 38.5557 124.837 38.057C125.053 36.1485 127.115 34.9003 129.466 35.1156C133.19 35.4564 133.221 35.5591 133.401 36.2748C133.479 36.577 133.539 36.8842 133.585 37.1947C133.657 37.6547 133.691 37.6547 133.364 37.7445C132.931 37.8541 132.495 37.9524 132.058 38.0384C130.804 38.2917 130.939 38.2844 130.367 37.5013C128.926 37.2203 127.787 37.6571 128.144 38.5238C128.587 39.5973 131.329 40.7053 131.329 43.3626C131.329 45.2716 128.746 46.4221 126.101 46.6351C124.235 46.7846 124.036 46.2681 123.157 45.4076C122.361 44.6284 121.896 43.7717 123.218 44.0443C124.541 44.3168 127.924 43.83 127.777 42.6644C127.605 41.2951 125.355 41.1216 124.896 39.0824C123.544 39.6633 121.991 40.2557 120.895 40.8529C121.388 41.3323 121.883 41.9948 121.883 42.9544C121.882 45.1354 119.471 47.341 113.373 46.4984C112.648 46.3985 112.832 46.2941 112.411 45.2718C111.991 44.2495 112.102 44.3007 113.013 43.7044C114.134 42.9694 115.777 42.0343 117.589 41.1048C117.206 40.7625 116.78 40.3656 116.409 39.8265C111.697 43.5512 106.807 46.7035 105.51 46.7035C104.421 46.7033 103.863 45.1742 103.766 43.8382C102.009 44.6677 100.24 45.4453 98.7382 46.5257C97.7235 47.2553 97.6361 47.3696 96.8065 46.6361C95.7855 45.7333 95.5456 45.3414 96.0868 44.5912C96.6269 43.8422 97.6478 42.4784 99.3895 39.6839C95.665 41.4562 91.519 45.6133 90.7987 46.432C90.0773 47.2495 89.8969 47.1823 89.1161 46.1595C88.3351 45.1364 88.2975 44.9517 88.8163 44.182C90.2665 42.0258 92.3216 39.6594 93.9794 37.8919C89.9722 41.1402 83.3504 46.3462 82.1552 47.1117C80.7732 47.9977 80.6232 47.6896 79.8114 46.8392C79.0304 46.0222 78.8813 45.7818 79.452 45.0677C80.3493 43.9407 82.42 41.4217 84.6513 38.7357C81.0263 41.5968 74.8051 45.7715 73.4559 46.6351C72.0744 47.5208 71.8942 47.2476 71.1132 46.3617C70.3322 45.4757 70.1223 44.8966 70.6923 44.181C72.9748 41.3183 77.1821 36.2745 78.0233 35.5248C78.8629 34.7754 78.9315 35.1498 79.5848 36.4105C80.1863 37.5683 80.3659 37.7738 79.7645 38.3871C78.3812 39.8143 77.0385 41.2922 75.7391 42.8177C79.4979 40.3663 83.7489 37.8139 86.2841 36.1146C85.5147 36.2958 84.7548 36.4841 84.0175 36.6839C83.1968 36.9062 82.9951 36.5474 82.7548 35.6615C82.4584 34.5694 82.1579 34.2509 83.5966 33.9574C85.6169 33.5453 87.6119 33.18 89.5722 32.8617C91.0547 31.1126 92.1693 29.8265 92.4286 29.5951ZM53.1718 28.4535C55.0616 28.3342 56.1105 29.4376 56.2137 31.3148C56.2595 32.1325 55.9219 32.9251 55.4257 33.3597C54.9477 33.7787 54.4975 33.5558 54.2538 32.8998C53.8939 31.9286 52.8925 31.7402 51.0546 32.9515C49.1899 34.1807 47.278 35.927 45.4618 37.806C46.2819 37.9926 47.7719 38.1893 48.8075 38.3294C50.2017 36.7588 51.7475 35.4454 53.2489 34.7406C55.8625 33.5138 56.7189 34.5358 57.5751 35.9671C58.4311 37.3983 58.7244 38.8799 57.2596 39.6986C54.9731 40.9765 52.1966 41.022 50.2977 40.9251C49.6047 41.7879 49.0146 42.6415 48.6971 43.3285C50.9503 42.9699 52.3928 42.2031 53.5194 41.846C54.6457 41.4883 54.6008 41.6416 54.1503 42.4593C53.6996 43.2772 51.8065 44.7595 49.6434 45.7308C47.4804 46.702 46.7595 45.7826 46.1737 44.7083C45.5879 43.6356 45.4924 43.0071 46.038 42.1009C46.3404 41.6011 46.6585 41.1135 46.9911 40.639C46.1697 40.519 44.6931 40.3304 43.4091 40.0199C41.4291 42.2381 39.6505 44.4383 38.3007 46.0384C37.9041 46.5092 37.5703 46.7093 36.9491 45.6283C36.2733 44.4528 36.2708 44.3604 36.7684 43.6859C37.9355 42.1088 39.1472 40.5741 40.4003 39.0843C38.8449 38.323 38.6152 37.3654 38.4813 36.3763C38.3914 35.7122 38.6169 35.6611 39.0223 35.8656C39.3041 36.0075 40.6527 36.495 42.2343 36.9681C43.5316 35.5188 44.8646 34.1111 46.2323 32.7474C48.8909 30.0894 50.7392 28.607 53.1718 28.4535ZM118.588 42.2093C117.292 43.028 115.068 44.2242 113.961 45.0335C117.975 44.6037 119.584 43.4392 118.588 42.2093ZM112.115 36.9603C110.797 36.6622 108.621 38.6165 107.449 40.6146C111.593 38.6799 113.621 37.3019 112.115 36.9603ZM55.4569 37.8597C57.2888 37.3601 56.3656 35.745 54.6532 36.5628C54.2313 36.7642 53.3413 37.6629 52.5145 38.4769C53.5203 38.401 54.4949 38.1215 55.4569 37.8597ZM43.9188 30.5931C45.0906 30.235 45.2838 30.1362 45.4911 31.5326C45.6312 32.4743 45.6138 32.7509 44.7509 33.0375C43.6257 33.4111 39.7286 34.8188 38.9266 35.1771C38.1253 35.5344 38.002 35.5342 37.9403 33.9583C37.8899 32.6709 38.0018 32.6693 39.1727 32.2396C40.3438 31.8099 43.0165 30.8683 43.9188 30.5931Z" fill="black"/>
</svg>
