<svg width="142" height="80" viewBox="0 0 142 80" fill="none" xmlns="http://www.w3.org/2000/svg">
<path d="M31.6689 58.4301C28.625 58.309 26.1346 57.4753 24.1874 55.9268C23.8157 55.631 22.9302 54.744 22.6331 54.3699C21.8434 53.376 21.3066 52.4087 20.9485 51.3355C19.8466 48.0319 20.4137 43.6968 22.5705 38.9391C24.4172 34.866 27.2667 30.8262 32.2381 25.2311C32.9704 24.4078 35.1512 22 35.1653 22C35.1705 22 35.0516 22.2061 34.9021 22.457C33.6094 24.6243 32.5034 27.1772 31.9009 29.3872C30.933 32.9335 31.0497 35.9767 32.2428 38.3365C33.0658 39.9623 34.4767 41.3704 36.0633 42.1488C38.8409 43.5111 42.9075 43.6238 47.8736 42.4786C48.2156 42.3993 65.1583 37.8972 85.5244 32.4738C105.891 27.0499 122.557 22.6156 122.559 22.6193C122.565 22.624 75.2429 42.8934 50.6773 53.4089C46.7869 55.0738 45.7465 55.4943 43.9176 56.137C39.2423 57.7805 35.0543 58.5647 31.6689 58.4301Z" fill="black"/>
</svg>
