<svg width="64" height="64" viewBox="0 0 64 64" fill="none" xmlns="http://www.w3.org/2000/svg">
<rect width="64" height="64" rx="14" fill="#11215F"/>
<path d="M31.8699 11.1651L31.3028 12.8654L29.5105 12.8794C29.2783 12.8811 29.1822 13.1772 29.3688 13.3152L30.8108 14.3799L30.2702 16.0888C30.2002 16.3099 30.452 16.4932 30.6409 16.3581L32.099 15.3158L33.5571 16.3581C33.7459 16.493 33.9979 16.31 33.9279 16.0888L33.3873 14.3799L34.8292 13.3152C35.0159 13.1772 34.9198 12.8811 34.6876 12.8794L32.8953 12.8654L32.3281 11.1651C32.2549 10.945 31.9433 10.945 31.8699 11.1651Z" fill="#FFCB67"/>
<path d="M31.8699 47.6721L31.3028 49.3724L29.5105 49.3863C29.2783 49.3881 29.1822 49.6842 29.3688 49.8221L30.8108 50.8869L30.2702 52.5957C30.2002 52.8168 30.452 53.0001 30.6409 52.8651L32.099 51.8227L33.5571 52.8651C33.7459 53 33.9979 52.817 33.9279 52.5957L33.3873 50.8869L34.8292 49.8221C35.0159 49.6842 34.9198 49.3881 34.6876 49.3863L32.8953 49.3724L32.3281 47.6721C32.2549 47.4518 31.9433 47.4518 31.8699 47.6721Z" fill="#FFCB67"/>
<path d="M13.618 29.4179L13.0508 31.1183L11.2585 31.1322C11.0264 31.134 10.9302 31.43 11.1169 31.568L12.5588 32.6328L12.0182 34.3416C11.9482 34.5627 12.2001 34.746 12.389 34.6109L13.8471 33.5686L15.3052 34.6109C15.4939 34.7458 15.7459 34.5628 15.6759 34.3416L15.1354 32.6328L16.5773 31.568C16.7639 31.43 16.6678 31.134 16.4357 31.1322L14.6433 31.1183L14.0762 29.4179C14.003 29.1979 13.6914 29.1979 13.618 29.4179Z" fill="#FFCB67"/>
<path d="M50.1238 29.4179L49.5567 31.1183L47.7644 31.1322C47.5322 31.134 47.4361 31.43 47.6227 31.568L49.0647 32.6328L48.5241 34.3416C48.4541 34.5627 48.7059 34.746 48.8948 34.6109L50.3529 33.5686L51.811 34.6109C51.9998 34.7458 52.2518 34.5628 52.1818 34.3416L51.6412 32.6328L53.0831 31.568C53.2698 31.43 53.1737 31.134 52.9415 31.1322L51.1492 31.1183L50.582 29.4179C50.5087 29.1979 50.1971 29.1979 50.1238 29.4179Z" fill="#FFCB67"/>
<path d="M47.3836 19.8868L46.8164 21.5871L45.0241 21.6011C44.792 21.6028 44.6959 21.8989 44.8825 22.0368L46.3244 23.1016L45.7839 24.8105C45.7139 25.0316 45.9657 25.2148 46.1546 25.0798L47.6127 24.0374L49.0708 25.0798C49.2595 25.2147 49.5116 25.0317 49.4415 24.8105L48.901 23.1016L50.3429 22.0368C50.5296 21.8989 50.4334 21.6028 50.2013 21.6011L48.409 21.5871L47.8418 19.8868C47.7684 19.6666 47.4571 19.6666 47.3836 19.8868Z" fill="#FFCB67"/>
<path d="M15.7684 38.1396L15.2012 39.8399L13.4089 39.8539C13.1768 39.8556 13.0806 40.1517 13.2673 40.2897L14.7092 41.3544L14.1686 43.0633C14.0986 43.2847 14.3505 43.4677 14.5394 43.3326L15.9975 42.2902L17.4556 43.3326C17.6443 43.4675 17.8963 43.2845 17.8263 43.0633L17.2858 41.3544L18.7277 40.2897C18.9143 40.1517 18.8182 39.8556 18.586 39.8539L16.7937 39.8399L16.2266 38.1396C16.1532 37.9196 15.8417 37.9196 15.7684 38.1396Z" fill="#FFCB67"/>
<path d="M22.4499 13.205L21.8827 14.9054L20.0904 14.9193C19.8582 14.9211 19.7621 15.2171 19.9488 15.3551L21.3907 16.4199L20.8501 18.1287C20.7801 18.3498 21.032 18.5331 21.2209 18.398L22.679 17.3557L24.1372 18.398C24.326 18.5329 24.578 18.35 24.508 18.1287L23.9674 16.4199L25.4093 15.3551C25.596 15.2171 25.4998 14.9211 25.2677 14.9193L23.4754 14.9054L22.9082 13.205C22.8348 12.985 22.5236 12.985 22.4499 13.205Z" fill="#FFCB67"/>
<path d="M40.702 44.8205L40.1348 46.5208L38.3425 46.5348C38.1104 46.5365 38.0142 46.8326 38.2009 46.9705L39.6428 48.0353L39.1022 49.7442C39.0322 49.9652 39.2841 50.1485 39.473 50.0135L40.9311 48.9711L42.3892 50.0135C42.5779 50.1484 42.8299 49.9654 42.7599 49.7442L42.2193 48.0353L43.6613 46.9705C43.8479 46.8326 43.7518 46.5365 43.5196 46.5348L41.7273 46.521L41.1602 44.8206C41.0868 44.6002 40.7752 44.6002 40.702 44.8205Z" fill="#FFCB67"/>
<path d="M16.2266 19.8868L16.7937 21.5871L18.586 21.6011C18.8182 21.6028 18.9143 21.8989 18.7277 22.0368L17.2858 23.1016L17.8263 24.8105C17.8963 25.0316 17.6445 25.2148 17.4556 25.0798L15.9975 24.0374L14.5394 25.0798C14.3506 25.2147 14.0986 25.0317 14.1686 24.8105L14.7092 23.1016L13.2673 22.0368C13.0806 21.8989 13.1768 21.6028 13.4089 21.6011L15.2012 21.5871L15.7684 19.8868C15.8417 19.6666 16.1532 19.6666 16.2266 19.8868Z" fill="#FFCB67"/>
<path d="M47.8418 38.1396L48.409 39.8399L50.2013 39.8539C50.4334 39.8556 50.5296 40.1517 50.3429 40.2897L48.901 41.3544L49.4415 43.0633C49.5116 43.2847 49.2597 43.4677 49.0708 43.3326L47.6127 42.2902L46.1546 43.3326C45.9659 43.4675 45.7139 43.2845 45.7839 43.0633L46.3244 41.3544L44.8825 40.2897C44.6959 40.1517 44.792 39.8556 45.0241 39.8539L46.8164 39.8399L47.3836 38.1396C47.4571 37.9196 47.7684 37.9196 47.8418 38.1396Z" fill="#FFCB67"/>
<path d="M41.1604 13.2053L41.7276 14.9056L43.5199 14.9195C43.752 14.9213 43.8482 15.2174 43.6615 15.3553L42.2196 16.4201L42.7602 18.1289C42.8302 18.35 42.5783 18.5333 42.3894 18.3983L40.9313 17.3559L39.4732 18.3983C39.2845 18.5332 39.0325 18.3502 39.1025 18.1289L39.643 16.4201L38.2011 15.3553C38.0145 15.2174 38.1106 14.9213 38.3427 14.9195L40.1351 14.9056L40.7022 13.2053C40.7757 12.9853 41.087 12.9853 41.1604 13.2053Z" fill="#FFCB67"/>
<path d="M22.9082 44.8214L23.4754 46.5218L25.2677 46.5357C25.4998 46.5375 25.596 46.8336 25.4093 46.9715L23.9674 48.0363L24.508 49.7451C24.578 49.9662 24.3261 50.1495 24.1372 50.0144L22.6791 48.9721L21.221 50.0144C21.0323 50.1493 20.7803 49.9664 20.8503 49.7451L21.3908 48.0363L19.9489 46.9715C19.7623 46.8336 19.8584 46.5375 20.0905 46.5357L21.8829 46.522L22.45 44.8216C22.5235 44.6012 22.8348 44.6012 22.9082 44.8214Z" fill="#FFCB67"/>
</svg>
