<svg width="64" height="64" viewBox="0 0 64 64" fill="none" xmlns="http://www.w3.org/2000/svg">
<rect width="64" height="64" rx="14" fill="#EEFAB3"/>
<path d="M14.2812 42H16.9047V35.3007H19.5282C22.831 35.3007 25.2203 33.8249 25.2203 30.4518V30.1005C25.2203 26.7274 22.9247 25.2517 19.4813 25.2517H14.2812V42ZM16.9047 33.3565V27.2896H19.5282C21.4724 27.2896 22.6202 28.0626 22.6202 30.1239V30.4284C22.6202 32.3492 21.5427 33.3565 19.5048 33.3565H16.9047ZM42.0145 36.8701L39.6018 36.4485C39.2505 38.3458 37.9856 40.0792 35.69 40.0792C33.0431 40.0792 31.4736 38.0647 31.4736 34.4808V32.724C31.4736 29.1635 33.1133 27.1256 35.7134 27.1256C37.7982 27.1256 38.9694 28.5076 39.2505 30.4987L41.874 30.1005C41.4289 27.1725 39.3208 25.0408 35.7134 25.0408C31.7079 25.0408 28.7564 28.0392 28.7564 32.7708V34.5042C28.7564 39.2828 31.3331 42.2342 35.69 42.2342C39.555 42.2342 41.5461 39.3999 42.0145 36.8701ZM46.3288 42H48.9758V25.2517H46.3288V42Z" fill="black"/>
</svg>
