<svg width="210" height="90" viewBox="0 0 210 90" fill="none" xmlns="http://www.w3.org/2000/svg">
<g clip-path="url(#clip0_6141_310093)">
<path d="M111.882 41.0952H114.691V55.9107H111.111L106.948 49.0952C106.235 47.9048 105.628 46.6369 105.628 46.6369H105.587V55.9107H102.766V41.0952H106.072L111.006 49.1667C111.336 49.698 111.619 50.2576 111.853 50.8393V41.0952H111.882ZM128.035 47.1607H123.142V41.0893H119.573V55.9048H123.142V49.5833H128.035V55.9048H131.621V41.0893H128.035V47.1607ZM75.7977 49.4643H80.4345V47.2381H75.7977V43.381H82.0055V41.0952H72.2178V55.9107H82.1106V53.4405H75.7977V49.4702V49.4643ZM62.9149 44.4643C62.8321 44.3658 62.7796 44.2446 62.7639 44.1158C62.7483 43.9871 62.7701 43.8565 62.8268 43.7403C62.8835 43.6242 62.9724 43.5276 63.0826 43.4626C63.1928 43.3977 63.3193 43.3672 63.4463 43.375H68.7664V41.0952H62.471C61.663 41.069 60.8769 41.3655 60.2802 41.9214C59.6835 42.4773 59.3234 43.2488 59.2766 44.0714C59.2766 44.9405 59.3409 45.5714 60.6198 46.9405L65.3559 52C65.4809 52.111 65.5693 52.2586 65.609 52.4226C65.6486 52.5867 65.6377 52.7592 65.5777 52.9167C65.5177 53.0742 65.4115 53.209 65.2736 53.3027C65.1356 53.3965 64.9727 53.4446 64.807 53.4405H58.9671V55.9107H65.6479C66.1074 55.9266 66.5654 55.8485 66.9947 55.681C67.4241 55.5134 67.8161 55.2598 68.1477 54.9352C68.4792 54.6106 68.7436 54.2215 68.9251 53.791C69.1066 53.3604 69.2016 52.8972 69.2044 52.4286C69.2044 51.4464 68.9767 50.7917 67.7094 49.4524L62.9149 44.4643ZM95.081 50.8214C94.8471 50.2398 94.5638 49.6801 94.2342 49.1488L89.2995 41.0774H85.9941V55.9107H88.8031V46.6548H88.844C88.844 46.6548 89.428 47.9405 90.1638 49.1131L94.3335 55.9286H97.9133V41.0952H95.1043V50.8274L95.081 50.8214ZM173.978 49.4643H178.615V47.2381H173.978V43.381H180.186V41.0952H170.398V55.9107H180.291V53.4405H173.978V49.4702V49.4643ZM196 55.9107H192.116L189.325 49.8274H187.76V55.9107H184.186V41.0952H190.703C193.845 41.0952 195.305 43.0893 195.305 45.3929C195.304 46.2755 195.034 47.136 194.532 47.8549C194.029 48.5738 193.32 49.1155 192.502 49.4048L196 55.9107ZM192.245 45.4881C192.245 44.8036 191.854 43.381 189.967 43.381H187.754V47.5952H189.927C191.889 47.5952 192.245 46.119 192.245 45.4881ZM161.048 44.4702C160.966 44.3717 160.913 44.2505 160.897 44.1218C160.882 43.993 160.904 43.8624 160.96 43.7463C161.017 43.6301 161.106 43.5335 161.216 43.4686C161.326 43.4036 161.453 43.3731 161.58 43.381H166.9V41.0952H160.581C159.773 41.069 158.987 41.3655 158.39 41.9214C157.794 42.4773 157.433 43.2488 157.387 44.0714C157.387 44.9405 157.451 45.5714 158.73 46.9405L163.466 52C163.602 52.1069 163.7 52.255 163.748 52.423C163.795 52.5909 163.788 52.7698 163.729 52.9337C163.67 53.0976 163.561 53.238 163.418 53.3345C163.275 53.431 163.106 53.4786 162.935 53.4702H157.077V55.9405H163.758C164.217 55.9564 164.675 55.8783 165.105 55.7107C165.534 55.5432 165.926 55.2896 166.258 54.9649C166.589 54.6403 166.854 54.2512 167.035 53.8207C167.217 53.3902 167.312 52.9269 167.314 52.4583C167.314 51.4762 167.087 50.8214 165.819 49.4821L161.048 44.4702ZM140.077 49.4702H144.714V47.2381H140.083V43.381H146.291V41.0952H136.503V55.9107H146.396V53.4405H140.083V49.4702H140.077ZM150.285 55.9167H153.865V41.0952H150.285V55.9107V55.9167ZM14 36V61H46.7034V36H14ZM31.9985 38.3036C30.0538 39.0655 28.1851 40.744 26.6784 44.1131C26.2404 45.0893 25.417 46.9762 25.0432 47.8214C22.0123 54.6012 20.4589 56.0595 15.8863 56.0595V37.875H31.9168C31.969 37.8718 32.0206 37.8881 32.062 37.9208C32.1034 37.9535 32.1317 38.0004 32.1417 38.0528C32.1517 38.1052 32.1427 38.1595 32.1163 38.2056C32.09 38.2517 32.0481 38.2865 31.9985 38.3036ZM44.8463 40.9345V59.125H28.7866C28.7349 59.1265 28.6844 59.109 28.6443 59.0758C28.6042 59.0426 28.577 58.9958 28.5679 58.944C28.5587 58.8921 28.568 58.8386 28.5942 58.7932C28.6204 58.7478 28.6618 58.7135 28.7107 58.6964C30.6554 57.9345 32.5241 56.256 34.0308 52.8869C34.4688 51.9107 35.2922 50.0238 35.666 49.1786C38.691 42.3988 40.2444 40.9405 44.8171 40.9405L44.8463 40.9345Z" fill="black"/>
</g>
<defs>
<clipPath id="clip0_6141_310093">
<rect width="182" height="25" fill="white" transform="translate(14 36)"/>
</clipPath>
</defs>
</svg>
