<svg width="142" height="80" viewBox="0 0 142 80" fill="none" xmlns="http://www.w3.org/2000/svg">
<path d="M75.7676 33.0186H62.248V36.6924H74.0449V42.502H62.251V46.1758H76.1582V52.4453H54.1719V26.668L75.7676 26.667V33.0186ZM38.1719 35.3594L43.4365 26.667H52.3389L42.2002 41.6445V52.4443H34.124V41.6445L23.9629 26.667H32.9131L38.1719 35.3594ZM114.337 52.4443H106.261L106.255 26.667H114.337V52.4443ZM103.344 26.667V33.0166H95.126V52.4414H87.0645V33.0195H78.8467V26.6641L103.344 26.667ZM116.689 26.8242C116.869 26.8195 117.048 26.8496 117.216 26.9131C117.375 26.9738 117.521 27.0643 117.646 27.1797C117.77 27.2966 117.869 27.4366 117.938 27.5918C118.009 27.7552 118.045 27.9328 118.042 28.1113C118.042 28.2949 118.004 28.4767 117.93 28.6445C117.858 28.8038 117.758 28.9487 117.634 29.0713C117.508 29.1936 117.36 29.2904 117.198 29.3564C117.032 29.4264 116.853 29.4639 116.672 29.4668C116.493 29.4709 116.314 29.4407 116.146 29.3779C115.984 29.319 115.836 29.2284 115.71 29.1113C115.586 28.9941 115.486 28.8527 115.417 28.6963C115.345 28.5296 115.309 28.3494 115.312 28.168C115.312 27.9879 115.35 27.8099 115.424 27.6455L115.418 27.6465C115.491 27.4878 115.593 27.3441 115.719 27.2227C115.846 27.1013 115.994 27.0034 116.156 26.9355C116.325 26.8642 116.506 26.8268 116.689 26.8242ZM116.686 27.0146C116.533 27.016 116.382 27.0485 116.242 27.1104C116.11 27.1685 115.989 27.2508 115.887 27.3535C115.784 27.4571 115.704 27.5802 115.648 27.7148C115.59 27.8558 115.56 28.0067 115.56 28.1592C115.555 28.3144 115.581 28.47 115.636 28.6152C115.689 28.7484 115.769 28.8694 115.87 28.9707C115.971 29.0715 116.092 29.1504 116.225 29.2031C116.366 29.259 116.517 29.2865 116.669 29.2822C116.822 29.2805 116.972 29.2479 117.112 29.1875C117.245 29.1288 117.366 29.0454 117.468 28.9414C117.569 28.8363 117.65 28.7126 117.705 28.5771C117.764 28.4331 117.794 28.2787 117.794 28.123C117.796 27.971 117.768 27.8198 117.711 27.6787C117.658 27.5458 117.58 27.424 117.479 27.3223C117.377 27.2228 117.256 27.1449 117.124 27.0918C116.985 27.036 116.835 27.0098 116.686 27.0146ZM116.766 27.3711C116.912 27.357 117.06 27.3924 117.184 27.4727C117.231 27.5131 117.268 27.5645 117.291 27.6221C117.314 27.6795 117.323 27.742 117.317 27.8037C117.321 27.8609 117.313 27.9183 117.292 27.9717C117.271 28.0252 117.238 28.074 117.196 28.1133C117.111 28.182 117.007 28.2232 116.897 28.2334L117.347 28.9082L117.081 28.9141L116.653 28.2559L116.387 28.2617V28.9268H116.14L116.149 27.3799L116.766 27.3711ZM116.396 27.5732V28.0645L116.651 28.0605C116.707 28.0605 116.76 28.0608 116.81 28.0537C116.855 28.0499 116.9 28.0385 116.941 28.0205C116.979 28.0038 117.012 27.9767 117.035 27.9424C117.06 27.899 117.073 27.8489 117.071 27.7988C117.074 27.7553 117.063 27.712 117.04 27.6748C117.021 27.6446 116.993 27.6208 116.961 27.6064C116.925 27.5892 116.887 27.5778 116.848 27.5732C116.806 27.5686 116.764 27.5669 116.723 27.5674L116.396 27.5732Z" fill="black"/>
</svg>
